<?xml version="1.0" encoding="utf-8"?>
<!-- Generator: Adobe Illustrator 26.1.0, SVG Export Plug-In . SVG Version: 6.00 Build 0)  -->
<svg version="1.1" id="Layer_1" xmlns="http://www.w3.org/2000/svg" xmlns:xlink="http://www.w3.org/1999/xlink" x="0px" y="0px"
	 viewBox="0 0 458.5 468" style="enable-background:new 0 0 458.5 468;" xml:space="preserve">
<style type="text/css">
	.st0{fill:#FFFFFF;}
	.st1{fill:#76C286;}
	.st2{fill:#F1F1F3;}
	.st3{fill:url(#SVGID_1_);}
	.st4{fill:url(#SVGID_00000011026612891405529680000013348811425431567767_);}
	.st5{fill:url(#SVGID_00000029017703997506911330000003648545991376845484_);}
	.st6{fill:url(#SVGID_00000020379705423459498030000015617889714949745815_);}
</style>
<path class="st0" d="M358.9,225.7l-6.3-13c0,0,7.6-3.6,8.3-3.6s15.5,6,15.5,6s4.6,3.3,5.1,4c0.5,0.7-0.7,5.6-1.2,6.6
	c-0.5,1-5.2,2.1-9,1.6S358.9,225.7,358.9,225.7z"/>
<path class="st1" d="M245,68c3.6,5.6,5.9,11.2,6.9,16.8c-1.6,0.2-2.6,0.1-3.2-0.2c-15.9-2.7-32-2.6-48.3,0.1
	c-15.9,2.5-31.1,7.5-45.4,15l-6.1-18c20.5-10,42-15.8,64.7-17.4c6.9-0.5,13.8-0.4,20.7,0.4C238.5,65,242.1,66.2,245,68z"/>
<path class="st1" d="M148.8,81.6l6.1,18c-8.3,4.4-16.2,9.6-23.8,15.4c-22.7,18-39,40.6-49,67.9c-6.7-2.1-12.1-5.8-16.1-11.2
	C82.6,131.5,110.2,101.4,148.8,81.6z"/>
<path class="st0" d="M248.7,84.5c4.4,8.7,6.6,14.7,6.7,17.8c0.2,6.2,1.5,12.3,4,18.2c11.2,33.2,39.9,54.5,71.3,68.1
	c3.8,1.8,7.6,3.6,11.5,5.4c14.3,6.6,23.6,18.5,33.9,29.8c0.7,12.2,0.1,24.4-1.8,36.3c-26-24.9-51.6-50.2-76.7-76
	c-14.1-14.5-26.7-27.1-37.6-37.8c-25.2-24.7-40.1-38.9-59.6-61.9C216.7,81.9,232.8,81.9,248.7,84.5z"/>
<path class="st0" d="M200.4,84.6c19.5,23,34.4,37.3,59.6,61.9c10.9,10.7,23.5,23.3,37.6,37.8c25.1,25.7,50.7,51,76.7,76l-3,13
	c-6.9,24.8-19.1,46.5-36.7,64.9c-16.3-16.1-31.8-34-46.4-53.8c-5.8-7.9-13-16.1-21.4-24.6l-0.1-9.1c0-0.7-0.6-1.3-1.3-1.3h-49.4
	c-0.3,0-0.5-0.2-0.5-0.5l0,0V142.3c0-0.5-0.4-1-1-1l0,0h-30.3c-0.6,0-1,0.5-1,1l0.2,29.8c-16.5-19.7-33.8-38.7-52.1-57.1
	c7.6-5.9,15.5-11,23.8-15.4C169.3,92.1,184.4,87.1,200.4,84.6z"/>
<path class="st0" d="M131.1,115c18.3,18.4,35.7,37.4,52.1,57.1l-0.1,103.4c0,0.8,0.7,1.5,1.5,1.5c0,0,0,0,0,0H266
	c0.4,0,0.8-0.3,0.8-0.8c0,0,0,0,0,0l0-16.6c8.4,8.5,15.6,16.7,21.4,24.6c14.6,19.8,30.1,37.7,46.4,53.8
	c-9.9,10.4-21.1,19.1-33.8,26.1c-0.5,0.3-1.1,0.1-1.4-0.4c-0.1-0.1-0.1-0.3-0.1-0.5v-12.2c0-0.6-0.5-1.2-1.2-1.2c0,0,0,0,0,0l-0.5,0
	c-0.9,0-1.6,0.8-1.6,1.7c-0.1,3.6-0.4,8.3,0.7,12c0.6,1.9-0.5,3.5-3.3,4.6c-0.4,0.2-0.9,0-1-0.4c0-0.1,0-0.2-0.1-0.3l-0.1-4.3
	c0-1-0.9-1.8-1.9-1.8h-0.5c-0.6,0-1.1,0.5-1.1,1.1c0,0,0,0,0,0l0.2,6.9c0,0.6-0.3,1.2-0.7,1.6l-0.7,0.6c-0.7,0.6-1.7,0.5-2.3-0.2
	c-0.2-0.3-0.4-0.6-0.4-1l-0.2-8.2c0-0.7-0.6-1.2-1.3-1.2c0,0,0,0,0,0h-0.5c-0.8,0-1.4,0.7-1.4,1.5c0,0,0,0,0,0l0.3,10.8
	c0,0.8-0.6,1.4-1.4,1.5c0,0,0,0,0,0l-0.7,0c-0.8,0-1.5-0.5-1.7-1.3c-1-4.1-1-7.8,0.1-11.1c0.1-0.4-0.1-0.9-0.5-1c-0.1,0-0.2,0-0.3,0
	h-2.1c-0.4,0-0.7,0.3-0.8,0.7c-0.8,5.9-0.6,10.4,0.6,13.5c0.3,0.6,0,1.3-0.7,1.6c-0.1,0.1-0.3,0.1-0.4,0.1l-2.9,0.1
	c-0.6,0-1.1-0.4-1.2-1c-0.7-5.8-0.6-10.4,0.4-13.8c0.1-0.5-0.1-1-0.6-1.2c-0.1,0-0.2,0-0.3,0H268c-0.6,0-1.1,0.5-1.1,1.1v15.5
	c0,0.9-0.6,1.7-1.5,1.8l-0.7,0.2c-0.8,0.2-1.6-0.4-1.8-1.2c0-0.1,0-0.2,0-0.3v-36.7c0-0.9-0.7-1.6-1.6-1.6c0,0,0,0,0,0l-0.5,0
	c-0.8,0-1.5,0.7-1.4,1.5c0,0,0,0,0,0l0.9,38.2c0,0.8-0.6,1.4-1.4,1.4c0,0,0,0,0,0h-2.6c-0.4,0-0.7-0.3-0.7-0.7v0v-18.5
	c0-0.3-0.2-0.6-0.6-0.6l-2.3,0.1c-0.4,0-0.7,0.3-0.7,0.8c0,0,0,0,0,0l0.4,18.8c0,0.8-0.6,1.5-1.4,1.5c0,0,0,0,0,0l-1.9,0.1
	c-0.6,0-1.1-0.5-1.1-1.1c0,0,0,0,0,0v-19.3c0-0.5-0.4-1-1-1l0,0h-0.8c-0.6,0-1.1,0.5-1.1,1.1v19.8c0,1-0.8,1.7-1.7,1.8l-0.9,0
	c-0.8,0-1.4-0.6-1.4-1.3c0,0,0,0,0,0v-20.6c0-0.4-0.3-0.8-0.8-0.8c0,0,0,0,0,0l-1.4,0c-0.5,0-1,0.5-1,1v21.4c0,0.5-0.4,0.8-0.8,0.8
	h-2.6c-0.6,0-1.2-0.5-1.2-1.2v0v-16.1l1.1-3.9c0.2-0.6-0.1-1.2-0.6-1.5c-0.7-0.5-1.5-0.7-2.4-0.7c-0.6,0-1.1,0.5-1.1,1.2l0.1,12.1
	l0.1,9.1c0,0.6-0.4,1-1,1.1l-1.9,0c-0.6,0-1.1-0.5-1.1-1.1c0,0,0,0,0,0v-31.7c0-0.9-0.8-1.7-1.7-1.7c-0.1,0-0.2,0-0.3,0
	c-1.3,0.3-1.9,1.2-1.7,2.8c0.3,3.4,1,9.8,0.8,14.6c-0.2,5.5-0.3,11-0.1,16.5c-1.3,0.8-2.4,0.9-3.3,0.2c-0.4-0.3-0.7-0.8-0.7-1.3
	v-20.6c0-0.6-0.5-1.1-1.1-1.1h-2.1c-0.5,0-0.9,0.4-0.9,0.9c0,0,0,0,0,0l0.5,21.3c0,0.5-0.4,0.9-0.9,0.9c0,0,0,0,0,0h-1.8
	c-0.8,0-1.5-0.7-1.5-1.5c0,0,0,0,0,0v-20.3c0-0.6-0.5-1.2-1.2-1.2l0,0h-0.9c-0.6,0-1.1,0.5-1.1,1.1v20.2c0,0.7-0.5,1.2-1.2,1.2l0,0
	h-0.7c-1,0-1.8-0.8-1.8-1.8l0,0v-19.3c0-0.9-0.7-1.6-1.6-1.6c-0.2,0-0.3,0-0.5,0.1c-0.5,0.2-0.9,0.3-1.1,0.5
	c-0.6,0.3-0.7,0.8-0.3,1.2c0.5,0.6,0.5,4.6,0,12c-0.1,1.1,0.1,3.4,0.6,6.9c0.1,0.5-0.3,0.9-0.8,1c0,0-0.1,0-0.1,0h-1.9
	c-0.7,0-1.3-0.6-1.3-1.3l0,0V363c0-1-0.8-1.8-1.8-1.8c0,0,0,0,0,0h-1.2c-0.6,0-1.2,0.5-1.2,1.1c0,0,0,0,0,0l0.4,18.5
	c0,0.2-0.2,0.3-0.3,0.3l0,0h-3.5c-0.3,0-0.5-0.2-0.5-0.5c0.1-12,0.3-24.6,0.5-37.6c0-1.5-0.5-2.5-1.5-3.3c-0.8-0.5-1.8-0.3-2.3,0.4
	c-0.2,0.3-0.3,0.6-0.3,1l0.9,37.1c0,0.7-0.6,1.3-1.3,1.3c0,0,0,0,0,0h-0.5c-1.3,0-2.3-1-2.3-2.3v0v-15c0-0.7-0.6-1.3-1.3-1.3l0,0
	h-0.9c-0.7,0-1.2,0.6-1.2,1.2v12.9c0,1.1-0.9,2-1.9,2l0,0h-0.5c-0.9,0-1.7-0.8-1.7-1.7l0,0v-13c0-0.8-0.6-1.4-1.4-1.4h-0.6
	c-0.7,0-1.3,0.6-1.3,1.3v11.1c0,0.8-0.6,1.4-1.4,1.4c0,0,0,0,0,0h-0.5c-1,0-1.9-0.8-1.9-1.8c0,0,0,0,0,0v-10.6
	c0-0.8-0.7-1.5-1.5-1.5c0,0,0,0,0,0l-0.7,0c-0.8,0-1.4,0.7-1.4,1.5v8.3c0,0.6-0.5,1-1,1c-0.1,0-0.2,0-0.2,0c-5-1.2-2.4-5.8-1.6-9
	c0.2-0.6-0.2-1.2-0.8-1.3c-0.1,0-0.2,0-0.3,0h-2.1c-1,0-1.8,0.8-1.8,1.8l0,0v3.6c0,0.8-0.6,1.4-1.4,1.4c-0.2,0-0.3,0-0.5-0.1
	l-0.6-0.2c-0.5-0.2-0.9-0.7-0.9-1.3l0.5-13.8c0.1-1.5-1-2.8-2.5-3l-0.6,0.1c-0.8,0.1-1.3,0.7-1.3,1.5l0.3,11.5
	c0,0.6-0.5,1.1-1.1,1.1c-0.2,0-0.5-0.1-0.7-0.2c-3.9-2.9-10.2-5.8-14.7-9.3c-27.4-21.2-45.6-47.9-54.7-80
	c-8.6-30.3-7.5-60.8,3.2-91.6C92.1,155.6,108.4,133,131.1,115z M176,313.5c-1.3,0.3-2,2.2-1.5,4.3c0,0,0,0,0,0
	c1.5,6.3,5.1,9.8,10.9,10.4c9.3,1.1,18.3-2,16.9-13.4c-0.9-7.4-8.7-11.5-14.9-15.3c-1.3-0.8-2.2-1.9-2.8-3.5
	c-0.5-1.4,0.3-2.9,1.9-3.5c0.1,0,0.1-0.1,0.2-0.1c4.7-1.4,4.5,2.5,6.1,5.1c0.3,0.5,0.7,0.8,1.2,1c1.4,0.5,3.5,0.6,6.4,0.3
	c1-0.1,1.7-0.9,1.6-1.9c-0.5-11.1-9.5-14.2-18.9-11.9c-11.1,2.7-10.7,16.5-2.1,21.7c4.2,2.6,7.5,4.7,9.8,6.5c1.7,1.3,2.1,3.3,1.3,6
	c-0.2,0.6-0.6,1-1.2,1.2c-1.7,0.5-3.2,0.5-4.5,0.1c-0.5-0.2-1-0.6-1.2-1.1l-2-4.8c-0.2-0.5-0.6-0.8-1.1-1
	C180.1,313.1,178.1,313.1,176,313.5z M273.9,313.8c-2-0.3-4.4-0.2-7.1,0.3c-0.5,0.1-0.9,0.5-1.1,1l-0.8,3c-0.3,1.4-1.6,2.5-3,2.6
	c-3.6,0.3-5.6-0.9-5.8-3.6c-0.3-3.9-0.5-6.7-0.5-8.3c0-0.7,0.6-1.3,1.3-1.3l17-0.1c0.7,0,1.2-0.5,1.3-1.2c0.3-4.6,0.8-13.4-2.2-17.4
	c-3.8-4.9-11.1-5.3-16.7-4.3c-6,1-9.3,4.8-9.7,11.3c-0.3,4.9-0.4,11.1-0.1,18.9c0.4,11.5,7.6,14.7,17.9,13.2
	c7.5-1.1,11.1-5.4,10.9-12.8C275.2,314.6,274.6,313.9,273.9,313.8z M214.9,287c0-1.2-1-2.1-2.1-2.1c0,0,0,0,0,0l-5,0
	c-1.2,0-2.1,1-2.1,2.1l0,0l0.1,38.2c0,1.2,1,2.1,2.1,2.1l0,0l5,0c1.2,0,2.1-1,2.1-2.1v0L214.9,287z M231.7,293.1
	c0.4,0,0.6,0.3,0.6,0.6c0,0.1,0,0.2-0.1,0.3c-2.1,4.1-5.7,10.7-10.7,19.8c-2.1,3.8-3,7.8-2.8,11.9c0,0.8,0.7,1.4,1.5,1.4l21.8,0.1
	c1.5,0,2.7-1.2,2.7-2.7c0,0,0,0,0,0V323c0-1.9-1.5-3.4-3.4-3.4h0l-9.8,0c-0.6,0-1.1-0.5-1.1-1.1c0-0.2,0.1-0.4,0.2-0.6
	c3.3-5.7,7.3-13.1,12.1-22.4c1.2-2.4,1.7-5.3,1.4-8.6c-0.1-0.9-0.8-1.5-1.7-1.5l-21.3-0.1c-1.3,0-2.4,1.1-2.5,2.4c0,0,0,0,0,0v2.8
	c0,1.5,1.2,2.7,2.6,2.7h0L231.7,293.1z"/>
<path class="st1" d="M266.8,259.7l0,16.6c0,0.4-0.4,0.8-0.8,0.8l0,0h-81.4c-0.8,0-1.5-0.7-1.5-1.5v0l0.1-103.4l-0.2-29.8
	c0-0.6,0.5-1,1-1h30.3c0.5,0,1,0.4,1,1l0,0v106.5c0,0.3,0.2,0.5,0.5,0.5l0,0h49.4c0.7,0,1.3,0.6,1.3,1.3L266.8,259.7z"/>
<path class="st1" d="M66,171.7c4,5.4,9.4,9.1,16.1,11.2c-10.7,30.8-11.8,61.3-3.2,91.6c9.1,32.1,27.3,58.8,54.7,80
	c4.5,3.5,10.7,6.3,14.7,9.3c0.5,0.4,1.2,0.3,1.5-0.2c0.1-0.2,0.2-0.4,0.2-0.7l-0.3-11.5c0-0.8,0.6-1.4,1.3-1.5l0.6-0.1
	c1.5,0.2,2.6,1.5,2.5,3l-0.5,13.8c0,0.6,0.3,1.1,0.9,1.3l0.6,0.2c0.7,0.3,1.5-0.1,1.7-0.8c0.1-0.1,0.1-0.3,0.1-0.5v-3.6
	c0-1,0.8-1.8,1.8-1.8l0,0h2.1c0.6,0,1.1,0.5,1.1,1.1c0,0.1,0,0.2,0,0.3c-0.9,3.2-3.4,7.7,1.6,9c0.6,0.1,1.1-0.2,1.3-0.8
	c0-0.1,0-0.2,0-0.2v-8.3c0-0.8,0.6-1.5,1.4-1.5l0.7,0c0.8,0,1.5,0.7,1.6,1.5c0,0,0,0,0,0v10.6c0,1,0.8,1.8,1.9,1.8h0h0.5
	c0.8,0,1.4-0.6,1.4-1.4v0v-11.1c0-0.7,0.6-1.3,1.3-1.3h0.6c0.8,0,1.4,0.6,1.4,1.4v13c0,0.9,0.8,1.7,1.7,1.7l0,0h0.5
	c1.1,0,1.9-0.9,1.9-2c0,0,0,0,0,0v-12.9c0-0.7,0.6-1.2,1.2-1.2h0.9c0.7,0,1.3,0.6,1.3,1.3l0,0v15c0,1.3,1,2.3,2.3,2.3l0,0h0.5
	c0.7,0,1.3-0.6,1.3-1.3c0,0,0,0,0,0l-0.9-37.1c0-0.9,0.7-1.7,1.6-1.7c0.4,0,0.7,0.1,1,0.3c1,0.7,1.5,1.8,1.5,3.3
	c-0.2,13-0.4,25.6-0.5,37.6c0,0.3,0.2,0.5,0.5,0.5h3.5c0.2,0,0.3-0.1,0.3-0.3l0,0l-0.4-18.5c0-0.6,0.5-1.2,1.1-1.2c0,0,0,0,0,0h1.2
	c1,0,1.8,0.8,1.8,1.8v0v18.2c0,0.7,0.6,1.3,1.3,1.3l0,0h1.9c0.5,0,0.9-0.4,0.9-0.9c0,0,0-0.1,0-0.1c-0.5-3.5-0.7-5.8-0.6-6.9
	c0.5-7.3,0.5-11.3,0-12c-0.4-0.5-0.3-0.9,0.3-1.2c0.3-0.2,0.7-0.3,1.1-0.5c0.9-0.3,1.8,0.2,2.1,1.1c0.1,0.2,0.1,0.3,0.1,0.5v19.3
	c0,1,0.8,1.8,1.8,1.8l0,0h0.7c0.7,0,1.2-0.5,1.2-1.2l0,0v-20.2c0-0.6,0.5-1.1,1.1-1.1h0.9c0.6,0,1.2,0.5,1.2,1.2l0,0v20.3
	c0,0.8,0.7,1.5,1.5,1.5l0,0h1.8c0.5,0,0.9-0.4,0.9-0.9c0,0,0,0,0,0l-0.5-21.3c0-0.5,0.4-0.9,0.9-0.9c0,0,0,0,0,0h2.1
	c0.6,0,1.1,0.5,1.1,1.1v20.6c0,0.5,0.3,1,0.7,1.3c0.9,0.7,2,0.6,3.3-0.2c1.3,9.9,4.5,17.5,15.4,19.4c-7.9,0.9-15.6,1.1-23.2,0.6
	c-28.6-1.7-54.9-9.9-79-24.7L116.5,365c-17.7-15.3-31.5-31.9-41.4-49.7c-16.8-30.3-23.3-63.6-19.5-100c0.7-6.6,1.5-13.1,2.4-19.7
	L66,171.7z"/>
<path class="st1" d="M391.3,228.4c-0.9-3.5-2-7-3.4-10.3c-0.1-0.3-0.2-0.6-0.3-0.9c-1-1.2-2-2.5-3-3.6L377,210
	c-0.2-0.1-0.5-0.1-0.7-0.1c-0.8,0.1-1.3,0.7-1.3,1.5l1.1,12.5c0.7,12.2,0.1,24.4-1.8,36.3l-3,13c6.5,4.8,9.5,12.2,13.6,18.8
	c-0.4-0.7,2.1-6.2,2.4-7.1c0.8-2.5,1.5-5,2.2-7.6c1.4-5.2,2.5-10.4,3.4-15.7C394.8,250.7,394.1,239.2,391.3,228.4z"/>
<path class="st1" d="M371.3,273.2c6.5,4.8,9.5,12.2,13.6,18.8c-1.8,5.4-4,10.7-6.6,15.9c-18,36-45,62.8-81.2,80.3
	c-18.7,8.5-38.2,13.5-58.3,15.1c-10.9-1.9-14.1-9.5-15.4-19.4c-0.1-5.5-0.1-11,0.1-16.5c0.2-4.8-0.5-11.1-0.8-14.6
	c-0.2-1.6,0.4-2.5,1.7-2.8c0.9-0.2,1.8,0.4,2,1.3c0,0.1,0,0.2,0,0.3v31.7c0,0.6,0.5,1.1,1.1,1.1c0,0,0,0,0,0l1.9,0
	c0.6,0,1-0.5,1-1.1l-0.1-9.1l0.3-7.8c0-0.4,0.2-0.9,0.6-1.1l0.6-0.5c0.3-0.2,0.7-0.2,0.9,0.1c0.1,0.1,0.1,0.2,0.2,0.3l0.3,1.9v16.1
	c0,0.6,0.5,1.2,1.2,1.2l0,0h2.6c0.5,0,0.8-0.4,0.8-0.8v-21.4c0-0.5,0.4-1,1-1l1.4,0c0.4,0,0.8,0.3,0.8,0.8c0,0,0,0,0,0v20.6
	c0,0.8,0.6,1.4,1.4,1.4c0,0,0,0,0,0l0.9,0c1,0,1.7-0.8,1.7-1.8v-19.8c0-0.6,0.5-1.1,1.1-1.1h0.8c0.5,0,1,0.4,1,1l0,0v19.3
	c0,0.6,0.5,1.1,1.1,1.1c0,0,0,0,0,0l1.9-0.1c0.8,0,1.5-0.7,1.4-1.5c0,0,0,0,0,0l-0.4-18.8c0-0.4,0.3-0.7,0.7-0.8c0,0,0,0,0,0
	l2.3-0.1c0.3,0,0.6,0.2,0.6,0.6v18.5c0,0.4,0.3,0.7,0.7,0.7l0,0h2.6c0.8,0,1.4-0.6,1.4-1.4c0,0,0,0,0,0l-0.9-38.2
	c0-0.8,0.6-1.5,1.4-1.5c0,0,0,0,0,0l0.5,0c0.9,0,1.6,0.7,1.6,1.6c0,0,0,0,0,0v36.7c0,0.8,0.7,1.5,1.5,1.5c0.1,0,0.2,0,0.3,0l0.7-0.2
	c0.9-0.2,1.5-1,1.5-1.8v-15.5c0-0.6,0.5-1.1,1.1-1.1h1.4c0.5,0,0.9,0.4,0.9,0.9c0,0.1,0,0.2,0,0.3c-1,3.4-1.1,8-0.4,13.8
	c0.1,0.6,0.6,1,1.2,1l2.9-0.1c0.7,0,1.2-0.6,1.2-1.2c0-0.1,0-0.3-0.1-0.4c-1.2-3-1.4-7.5-0.6-13.5c0.1-0.4,0.4-0.7,0.8-0.7h2.1
	c0.5,0,0.8,0.4,0.8,0.8c0,0.1,0,0.2,0,0.3c-1.1,3.3-1.1,7-0.1,11.1c0.2,0.8,0.9,1.3,1.7,1.3l0.7,0c0.8,0,1.4-0.7,1.4-1.5
	c0,0,0,0,0,0l-0.3-10.8c0-0.8,0.6-1.5,1.4-1.5c0,0,0,0,0,0h0.5c0.7,0,1.3,0.5,1.3,1.2c0,0,0,0,0,0l0.2,8.2c0,0.9,0.8,1.6,1.7,1.6
	c0.4,0,0.7-0.1,1-0.4l0.7-0.6c0.5-0.4,0.8-1,0.7-1.6l-0.2-6.9c0-0.6,0.5-1.1,1.1-1.1c0,0,0,0,0,0h0.5c1,0,1.9,0.8,1.9,1.8l0.1,4.3
	c0,0.4,0.4,0.8,0.8,0.8c0.1,0,0.2,0,0.3-0.1c2.8-1.1,4-2.7,3.3-4.6c-1.2-3.7-0.8-8.4-0.7-12c0-0.9,0.7-1.6,1.6-1.7l0.5,0
	c0.6,0,1.2,0.5,1.2,1.2c0,0,0,0,0,0v12.2c0,0.5,0.5,1,1,1c0.2,0,0.3,0,0.5-0.1c12.7-7,23.9-15.7,33.8-26.1
	C352.2,319.7,364.4,298,371.3,273.2z"/>
<path class="st1" d="M176,313.5c2-0.5,4.1-0.5,6.3,0.1c0.5,0.1,0.9,0.5,1.1,1l2,4.8c0.2,0.5,0.6,0.9,1.2,1.1
	c1.3,0.5,2.8,0.4,4.5-0.1c0.6-0.2,1-0.6,1.2-1.2c0.8-2.7,0.4-4.8-1.3-6c-2.3-1.8-5.6-3.9-9.8-6.5c-8.7-5.3-9-19,2.1-21.7
	c9.5-2.3,18.5,0.8,18.9,11.9c0,1-0.7,1.8-1.6,1.9c-2.9,0.3-5,0.2-6.4-0.3c-0.5-0.2-0.9-0.5-1.2-1c-1.6-2.6-1.4-6.5-6.1-5.1
	c-1.6,0.5-2.6,2-2.2,3.4c0,0.1,0,0.1,0.1,0.2c0.6,1.5,1.5,2.7,2.8,3.5c6.2,3.8,14,7.9,14.9,15.3c1.4,11.5-7.5,14.5-16.9,13.4
	c-5.8-0.6-9.5-4.1-10.9-10.4C174,315.8,174.7,313.9,176,313.5C176,313.5,176,313.5,176,313.5z"/>
<path class="st1" d="M273.9,313.8c0.8,0.1,1.3,0.8,1.3,1.6c0.2,7.5-3.4,11.7-10.9,12.8c-10.3,1.5-17.5-1.7-17.9-13.2
	c-0.3-7.7-0.2-14,0.1-18.9c0.5-6.5,3.7-10.3,9.7-11.3c5.6-1,13-0.6,16.7,4.3c3,3.9,2.5,12.8,2.2,17.4c0,0.7-0.6,1.2-1.3,1.2l-17,0.1
	c-0.7,0-1.3,0.6-1.3,1.3c0,1.6,0.2,4.3,0.5,8.3c0.2,2.7,2.1,3.9,5.8,3.6c1.5-0.1,2.7-1.2,3-2.6l0.8-3c0.1-0.5,0.6-0.9,1.1-1
	C269.5,313.6,271.8,313.4,273.9,313.8z M257.9,300.4l6.1-0.2c1,0,1.7-0.9,1.7-1.8c0,0,0,0,0,0l-0.1-2.2c-0.1-2.1-1.8-3.7-3.8-3.7
	c0,0,0,0,0,0l-2.2,0.1c-2,0.1-3.6,1.8-3.5,3.9l0.1,2.2C256.1,299.7,256.9,300.5,257.9,300.4C257.9,300.4,257.9,300.4,257.9,300.4z"
	/>
<path class="st1" d="M207.7,284.9l5,0c1.2,0,2.1,1,2.1,2.1l0.1,38.2c0,1.2-1,2.1-2.1,2.1l-5,0c-1.2,0-2.1-1-2.1-2.1l-0.1-38.2
	C205.6,285.8,206.5,284.9,207.7,284.9z"/>
<path class="st1" d="M231.7,293.1l-10.5,0c-1.5,0-2.6-1.2-2.6-2.7c0,0,0,0,0,0v-2.8c0-1.4,1.1-2.5,2.4-2.5c0,0,0,0,0,0l21.3,0.1
	c0.9,0,1.6,0.7,1.7,1.5c0.3,3.4-0.2,6.2-1.4,8.6c-4.8,9.2-8.8,16.7-12.1,22.4c-0.3,0.5-0.1,1.2,0.4,1.6c0.2,0.1,0.4,0.2,0.6,0.2
	l9.8,0c1.9,0,3.4,1.5,3.4,3.4c0,0,0,0,0,0v1.6c0,1.5-1.2,2.7-2.7,2.7c0,0,0,0,0,0l-21.8-0.1c-0.8,0-1.4-0.6-1.5-1.4
	c-0.3-4.1,0.7-8.1,2.8-11.9c5-9.1,8.6-15.7,10.7-19.8c0.2-0.3,0-0.7-0.3-0.9C231.9,293.1,231.8,293.1,231.7,293.1z"/>
<path class="st2" d="M257.9,300.4c-1,0-1.8-0.7-1.8-1.7c0,0,0,0,0,0l-0.1-2.2c-0.1-2.1,1.5-3.9,3.5-3.9l2.2-0.1
	c2-0.1,3.8,1.6,3.8,3.7c0,0,0,0,0,0l0.1,2.2c0,1-0.7,1.8-1.7,1.8c0,0,0,0,0,0L257.9,300.4z"/>
<path class="st1" d="M233.5,367.1l-0.3-1.9c0-0.4-0.4-0.6-0.7-0.6c-0.1,0-0.2,0.1-0.3,0.2l-0.6,0.5c-0.3,0.3-0.5,0.7-0.6,1.1
	l-0.3,7.8l-0.1-12.1c0-0.6,0.5-1.1,1.1-1.2c0.9,0,1.7,0.2,2.4,0.7c0.5,0.3,0.7,0.9,0.6,1.5L233.5,367.1z"/>
<path class="st1" d="M136.7,379.3c-7.8-2.9-14.5-7.7-20.1-14.3L136.7,379.3z"/>
<linearGradient id="SVGID_1_" gradientUnits="userSpaceOnUse" x1="359.5461" y1="110.5743" x2="280.4149" y2="168.6039">
	<stop  offset="0" style="stop-color:#000000"/>
	<stop  offset="0" style="stop-color:#7E7E7E"/>
	<stop  offset="0.1959" style="stop-color:#000000"/>
	<stop  offset="0.3567" style="stop-color:#3A3A3A"/>
	<stop  offset="0.5" style="stop-color:#3F3F3F"/>
	<stop  offset="0.6433" style="stop-color:#797979"/>
	<stop  offset="0.8041" style="stop-color:#727272"/>
	<stop  offset="1" style="stop-color:#101010"/>
</linearGradient>
<path class="st3" d="M387,216.4C346.3,99.6,245,68,245,68C251.5,212.9,392.3,223.1,387,216.4z"/>
<path class="st0" d="M163-206.9l-6.3-13c0,0,7.6-3.6,8.3-3.6c0.7,0.1,15.5,6,15.5,6s4.6,3.3,5.1,4s-0.7,5.6-1.2,6.6
	c-0.5,1-5.2,2.1-9,1.6C171.6-205.7,163-206.9,163-206.9z"/>
<path class="st1" d="M49-364.6c3.6,5.6,5.9,11.2,6.9,16.8c-1.6,0.2-2.6,0.1-3.2-0.2c-15.9-2.7-32-2.6-48.3,0.1
	c-15.9,2.5-31.1,7.5-45.4,15l-6.1-18c20.5-10,42-15.8,64.7-17.4c6.9-0.5,13.8-0.4,20.7,0.4C42.6-367.5,46.2-366.4,49-364.6z"/>
<path class="st1" d="M-47.1-351l6.1,18c-8.3,4.4-16.2,9.6-23.8,15.4c-22.7,18-39,40.6-49,67.9c-6.7-2.1-12.1-5.8-16.1-11.2
	C-113.3-301.1-85.7-331.1-47.1-351z"/>
<path class="st0" d="M52.8-348c4.4,8.7,6.6,14.7,6.7,17.8c0.2,6.2,1.5,12.3,4,18.2c11.2,33.2,39.9,54.5,71.3,68.1
	c3.8,1.8,7.6,3.6,11.5,5.4c14.3,6.6,23.6,18.5,33.9,29.8c0.7,12.2,0.1,24.4-1.8,36.3c-26-24.9-51.6-50.2-76.7-76
	c-14.1-14.5-26.7-27.1-37.6-37.8C38.9-310.7,24-325,4.4-348C20.7-350.7,36.8-350.7,52.8-348z"/>
<path class="st0" d="M4.4-348c19.5,23,34.4,37.3,59.6,61.9c10.9,10.7,23.5,23.3,37.6,37.8c25.1,25.7,50.7,51,76.7,76l-3,13
	c-6.9,24.8-19.1,46.5-36.7,64.9c-16.3-16.1-31.8-34-46.4-53.8c-5.8-7.9-13-16.1-21.4-24.6l-0.1-9.1c0-0.7-0.6-1.3-1.3-1.3H20
	c-0.3,0-0.5-0.2-0.5-0.5l0,0v-106.5c0-0.5-0.4-1-1-1l0,0h-30.3c-0.6,0-1,0.5-1,1l0.2,29.8c-16.5-19.7-33.8-38.7-52.1-57.1
	c7.6-5.9,15.5-11,23.8-15.4C-26.6-340.5-11.5-345.5,4.4-348z"/>
<path class="st0" d="M-64.8-317.6c18.3,18.4,35.7,37.4,52.1,57.1l-0.1,103.4c0,0.8,0.7,1.5,1.5,1.5c0,0,0,0,0,0h81.4
	c0.4,0,0.8-0.3,0.8-0.8c0,0,0,0,0,0l0-16.6c8.4,8.5,15.6,16.7,21.4,24.6c14.6,19.8,30.1,37.7,46.4,53.8
	C128.9-84,117.6-75.3,105-68.3c-0.5,0.3-1.1,0.1-1.4-0.4c-0.1-0.1-0.1-0.3-0.1-0.5v-12.2c0-0.6-0.5-1.2-1.2-1.2c0,0,0,0,0,0l-0.5,0
	c-0.9,0-1.6,0.8-1.6,1.7c-0.1,3.6-0.4,8.3,0.7,12c0.6,1.9-0.5,3.5-3.3,4.6c-0.4,0.2-0.9,0-1-0.4c0-0.1,0-0.2-0.1-0.3l-0.1-4.3
	c0-1-0.9-1.8-1.9-1.8H94c-0.6,0-1.1,0.5-1.1,1.1c0,0,0,0,0,0l0.2,6.9c0,0.6-0.3,1.2-0.7,1.6l-0.7,0.6c-0.7,0.6-1.7,0.5-2.3-0.2
	c-0.2-0.3-0.4-0.6-0.4-1l-0.2-8.2c0-0.7-0.6-1.2-1.3-1.2c0,0,0,0,0,0H87c-0.8,0-1.4,0.7-1.4,1.5c0,0,0,0,0,0l0.3,10.8
	c0,0.8-0.6,1.4-1.4,1.5c0,0,0,0,0,0l-0.7,0c-0.8,0-1.5-0.5-1.7-1.3c-1-4.1-1-7.8,0.1-11.1c0.1-0.4-0.1-0.9-0.5-1c-0.1,0-0.2,0-0.3,0
	h-2.1c-0.4,0-0.7,0.3-0.8,0.7c-0.8,5.9-0.6,10.4,0.6,13.5c0.3,0.6,0,1.3-0.7,1.6c-0.1,0.1-0.3,0.1-0.4,0.1l-2.9,0.1
	c-0.6,0-1.1-0.4-1.2-1c-0.7-5.8-0.6-10.4,0.4-13.8c0.1-0.5-0.1-1-0.6-1.2c-0.1,0-0.2,0-0.3,0h-1.4c-0.6,0-1.1,0.5-1.1,1.1v15.5
	c0,0.9-0.6,1.7-1.5,1.8l-0.7,0.2c-0.8,0.2-1.6-0.4-1.8-1.2c0-0.1,0-0.2,0-0.3v-36.7c0-0.9-0.7-1.6-1.6-1.6c0,0,0,0,0,0l-0.5,0
	c-0.8,0-1.5,0.7-1.4,1.5c0,0,0,0,0,0l0.9,38.2c0,0.8-0.6,1.4-1.4,1.4c0,0,0,0,0,0h-2.6c-0.4,0-0.7-0.3-0.7-0.7v0v-18.5
	c0-0.3-0.2-0.6-0.6-0.6l-2.3,0.1c-0.4,0-0.7,0.3-0.7,0.8c0,0,0,0,0,0l0.4,18.8c0,0.8-0.6,1.5-1.4,1.5c0,0,0,0,0,0L53.2-50
	c-0.6,0-1.1-0.5-1.1-1.1c0,0,0,0,0,0v-19.3c0-0.5-0.4-1-1-1l0,0h-0.8c-0.6,0-1.1,0.5-1.1,1.1v19.8c0,1-0.8,1.7-1.7,1.8l-0.9,0
	c-0.8,0-1.4-0.6-1.4-1.3c0,0,0,0,0,0v-20.6c0-0.4-0.3-0.8-0.8-0.8c0,0,0,0,0,0l-1.4,0c-0.5,0-1,0.5-1,1v21.4c0,0.5-0.4,0.8-0.8,0.8
	h-2.6c-0.6,0-1.2-0.5-1.2-1.2v0v-16.1l1.1-3.9c0.2-0.6-0.1-1.2-0.6-1.5c-0.7-0.5-1.5-0.7-2.4-0.7c-0.6,0-1.1,0.5-1.1,1.2l0.1,12.1
	l0.1,9.1c0,0.6-0.4,1-1,1.1l-1.9,0c-0.6,0-1.1-0.5-1.1-1.1c0,0,0,0,0,0v-31.7c0-0.9-0.8-1.7-1.7-1.7c-0.1,0-0.2,0-0.3,0
	c-1.3,0.3-1.9,1.2-1.7,2.8c0.3,3.4,1,9.8,0.8,14.6c-0.2,5.5-0.3,11-0.1,16.5c-1.3,0.8-2.4,0.9-3.3,0.2c-0.4-0.3-0.7-0.8-0.7-1.3
	v-20.6c0-0.6-0.5-1.1-1.1-1.1h-2.1c-0.5,0-0.9,0.4-0.9,0.9c0,0,0,0,0,0L20-49.4c0,0.5-0.4,0.9-0.9,0.9c0,0,0,0,0,0h-1.8
	c-0.8,0-1.5-0.7-1.5-1.5c0,0,0,0,0,0v-20.3c0-0.6-0.5-1.2-1.2-1.2l0,0h-0.9c-0.6,0-1.1,0.5-1.1,1.1v20.2c0,0.7-0.5,1.2-1.2,1.2l0,0
	h-0.7c-1,0-1.8-0.8-1.8-1.8l0,0V-70c0-0.9-0.7-1.6-1.6-1.6c-0.2,0-0.3,0-0.5,0.1c-0.5,0.2-0.9,0.3-1.1,0.5c-0.6,0.3-0.7,0.8-0.3,1.2
	c0.5,0.6,0.5,4.6,0,12c-0.1,1.1,0.1,3.4,0.6,6.9c0.1,0.5-0.3,0.9-0.8,1c0,0-0.1,0-0.1,0H3.2c-0.7,0-1.3-0.6-1.3-1.3l0,0v-18.2
	c0-1-0.8-1.8-1.8-1.8c0,0,0,0,0,0h-1.2c-0.6,0-1.2,0.5-1.2,1.1c0,0,0,0,0,0l0.4,18.5c0,0.2-0.2,0.3-0.3,0.3l0,0h-3.5
	c-0.3,0-0.5-0.2-0.5-0.5c0.1-12,0.3-24.6,0.5-37.6c0-1.5-0.5-2.5-1.5-3.3c-0.8-0.5-1.8-0.3-2.3,0.4c-0.2,0.3-0.3,0.6-0.3,1l0.9,37.1
	c0,0.7-0.6,1.3-1.3,1.3c0,0,0,0,0,0h-0.5c-1.3,0-2.3-1-2.3-2.3v0v-15c0-0.7-0.6-1.3-1.3-1.3l0,0h-0.9c-0.7,0-1.2,0.6-1.2,1.2v12.9
	c0,1.1-0.9,2-1.9,2l0,0h-0.5c-0.9,0-1.7-0.8-1.7-1.7l0,0v-13c0-0.8-0.6-1.4-1.4-1.4h-0.6c-0.7,0-1.3,0.6-1.3,1.3v11.1
	c0,0.8-0.6,1.4-1.4,1.4c0,0,0,0,0,0h-0.5c-1,0-1.9-0.8-1.9-1.8c0,0,0,0,0,0v-10.6c0-0.8-0.7-1.5-1.5-1.5c0,0,0,0,0,0l-0.7,0
	c-0.8,0-1.4,0.7-1.4,1.5v8.3c0,0.6-0.5,1-1,1c-0.1,0-0.2,0-0.2,0c-5-1.2-2.4-5.8-1.6-9c0.2-0.6-0.2-1.2-0.8-1.3c-0.1,0-0.2,0-0.3,0
	h-2.1c-1,0-1.8,0.8-1.8,1.8l0,0v3.6c0,0.8-0.6,1.4-1.4,1.4c-0.2,0-0.3,0-0.5-0.1l-0.6-0.2c-0.5-0.2-0.9-0.7-0.9-1.3l0.5-13.8
	c0.1-1.5-1-2.8-2.5-3l-0.6,0.1c-0.8,0.1-1.3,0.7-1.3,1.5l0.3,11.5c0,0.6-0.5,1.1-1.1,1.1c-0.2,0-0.5-0.1-0.7-0.2
	c-3.9-2.9-10.2-5.8-14.7-9.3c-27.4-21.2-45.6-47.9-54.7-80c-8.6-30.3-7.5-60.8,3.2-91.6C-103.8-277-87.5-299.6-64.8-317.6z
	 M-19.9-119c-1.3,0.3-2,2.2-1.5,4.3c0,0,0,0,0,0c1.5,6.3,5.1,9.8,10.9,10.4c9.3,1.1,18.3-2,16.9-13.4c-0.9-7.4-8.7-11.5-14.9-15.3
	c-1.3-0.8-2.2-1.9-2.8-3.5c-0.5-1.4,0.3-2.9,1.9-3.5c0.1,0,0.1-0.1,0.2-0.1c4.7-1.4,4.5,2.5,6.1,5.1c0.3,0.5,0.7,0.8,1.2,1
	c1.4,0.5,3.5,0.6,6.4,0.3c1-0.1,1.7-0.9,1.6-1.9c-0.5-11.1-9.5-14.2-18.9-11.9c-11.1,2.7-10.7,16.5-2.1,21.7
	c4.2,2.6,7.5,4.7,9.8,6.5c1.7,1.3,2.1,3.3,1.3,6c-0.2,0.6-0.6,1-1.2,1.2c-1.7,0.5-3.2,0.5-4.5,0.1c-0.5-0.2-1-0.6-1.2-1.1l-2-4.8
	c-0.2-0.5-0.6-0.8-1.1-1C-15.8-119.5-17.9-119.5-19.9-119z M77.9-118.8c-2-0.3-4.4-0.2-7.1,0.3c-0.5,0.1-0.9,0.5-1.1,1l-0.8,3
	c-0.3,1.4-1.6,2.5-3,2.6c-3.6,0.3-5.6-0.9-5.8-3.6c-0.3-3.9-0.5-6.7-0.5-8.3c0-0.7,0.6-1.3,1.3-1.3l17-0.1c0.7,0,1.2-0.5,1.3-1.2
	c0.3-4.6,0.8-13.4-2.2-17.4c-3.8-4.9-11.1-5.3-16.7-4.3c-6,1-9.3,4.8-9.7,11.3c-0.3,4.9-0.4,11.1-0.1,18.9
	c0.4,11.5,7.6,14.7,17.9,13.2c7.5-1.1,11.1-5.4,10.9-12.8C79.3-118,78.7-118.7,77.9-118.8z M19-145.6c0-1.2-1-2.1-2.1-2.1
	c0,0,0,0,0,0l-5,0c-1.2,0-2.1,1-2.1,2.1l0,0l0.1,38.2c0,1.2,1,2.1,2.1,2.1l0,0l5,0c1.2,0,2.1-1,2.1-2.1v0L19-145.6z M35.8-139.5
	c0.4,0,0.6,0.3,0.6,0.6c0,0.1,0,0.2-0.1,0.3c-2.1,4.1-5.7,10.7-10.7,19.8c-2.1,3.8-3,7.8-2.8,11.9c0,0.8,0.7,1.4,1.5,1.4l21.8,0.1
	c1.5,0,2.7-1.2,2.7-2.7c0,0,0,0,0,0v-1.6c0-1.9-1.5-3.4-3.4-3.4h0l-9.8,0c-0.6,0-1.1-0.5-1.1-1.1c0-0.2,0.1-0.4,0.2-0.6
	c3.3-5.7,7.3-13.1,12.1-22.4c1.2-2.4,1.7-5.3,1.4-8.6c-0.1-0.9-0.8-1.5-1.7-1.5l-21.3-0.1c-1.3,0-2.4,1.1-2.5,2.4c0,0,0,0,0,0v2.8
	c0,1.5,1.2,2.7,2.6,2.7h0L35.8-139.5z"/>
<path class="st0" d="M70.9-172.9l0,16.6c0,0.4-0.4,0.8-0.8,0.8l0,0h-81.4c-0.8,0-1.5-0.7-1.5-1.5v0l0.1-103.4l-0.2-29.8
	c0-0.6,0.5-1,1-1h30.3c0.5,0,1,0.4,1,1l0,0v106.5c0,0.3,0.2,0.5,0.5,0.5l0,0h49.4c0.7,0,1.3,0.6,1.3,1.3L70.9-172.9z"/>
<path class="st1" d="M-129.9-260.8c4,5.4,9.4,9.1,16.1,11.2c-10.7,30.8-11.8,61.3-3.2,91.6c9.1,32.1,27.3,58.8,54.7,80
	c4.5,3.5,10.7,6.3,14.7,9.3c0.5,0.4,1.2,0.3,1.5-0.2c0.1-0.2,0.2-0.4,0.2-0.7l-0.3-11.5c0-0.8,0.6-1.4,1.3-1.5l0.6-0.1
	c1.5,0.2,2.6,1.5,2.5,3L-42.3-66c0,0.6,0.3,1.1,0.9,1.3l0.6,0.2c0.7,0.3,1.5-0.1,1.7-0.8c0.1-0.1,0.1-0.3,0.1-0.5v-3.6
	c0-1,0.8-1.8,1.8-1.8l0,0h2.1c0.6,0,1.1,0.5,1.1,1.1c0,0.1,0,0.2,0,0.3c-0.9,3.2-3.4,7.7,1.6,9c0.6,0.1,1.1-0.2,1.3-0.8
	c0-0.1,0-0.2,0-0.2v-8.3c0-0.8,0.6-1.5,1.4-1.5l0.7,0c0.8,0,1.5,0.7,1.6,1.5c0,0,0,0,0,0v10.6c0,1,0.8,1.8,1.9,1.8h0h0.5
	c0.8,0,1.4-0.6,1.4-1.4v0v-11.1c0-0.7,0.6-1.3,1.3-1.3h0.6c0.8,0,1.4,0.6,1.4,1.4v13c0,0.9,0.8,1.7,1.7,1.7l0,0h0.5
	c1.1,0,1.9-0.9,1.9-2c0,0,0,0,0,0v-12.9c0-0.7,0.6-1.2,1.2-1.2h0.9c0.7,0,1.3,0.6,1.3,1.3l0,0v15c0,1.3,1,2.3,2.3,2.3l0,0h0.5
	c0.7,0,1.3-0.6,1.3-1.3c0,0,0,0,0,0l-0.9-37.1c0-0.9,0.7-1.7,1.6-1.7c0.4,0,0.7,0.1,1,0.3c1,0.7,1.5,1.8,1.5,3.3
	c-0.2,13-0.4,25.6-0.5,37.6c0,0.3,0.2,0.5,0.5,0.5h3.5c0.2,0,0.3-0.1,0.3-0.3l0,0l-0.4-18.5c0-0.6,0.5-1.2,1.1-1.2c0,0,0,0,0,0h1.2
	c1,0,1.8,0.8,1.8,1.8v0v18.2c0,0.7,0.6,1.3,1.3,1.3l0,0h1.9C5.6-50,6-50.5,6-50.9c0,0,0-0.1,0-0.1c-0.5-3.5-0.7-5.8-0.6-6.9
	c0.5-7.3,0.5-11.3,0-12c-0.4-0.5-0.3-0.9,0.3-1.2c0.3-0.2,0.7-0.3,1.1-0.5c0.9-0.3,1.8,0.2,2.1,1.1C8.9-70.4,9-70.2,9-70v19.3
	c0,1,0.8,1.8,1.8,1.8l0,0h0.7c0.7,0,1.2-0.5,1.2-1.2l0,0v-20.2c0-0.6,0.5-1.1,1.1-1.1h0.9c0.6,0,1.2,0.5,1.2,1.2l0,0V-50
	c0,0.8,0.7,1.5,1.5,1.5l0,0h1.8c0.5,0,0.9-0.4,0.9-0.9c0,0,0,0,0,0l-0.5-21.3c0-0.5,0.4-0.9,0.9-0.9c0,0,0,0,0,0h2.1
	c0.6,0,1.1,0.5,1.1,1.1v20.6c0,0.5,0.3,1,0.7,1.3c0.9,0.7,2,0.6,3.3-0.2c1.3,9.9,4.5,17.5,15.4,19.4c-7.9,0.9-15.6,1.1-23.2,0.6
	c-28.6-1.7-54.9-9.9-79-24.7l-20.1-14.3c-17.7-15.3-31.5-31.9-41.4-49.7c-16.8-30.3-23.3-63.6-19.5-100c0.7-6.6,1.5-13.1,2.4-19.7
	L-129.9-260.8z"/>
<path class="st1" d="M195.4-204.2c-0.9-3.5-2-7-3.4-10.3c-0.1-0.3-0.2-0.6-0.3-0.9c-1-1.2-2-2.5-3-3.6l-7.7-3.5
	c-0.2-0.1-0.5-0.1-0.7-0.1c-0.8,0.1-1.3,0.7-1.3,1.5l1.1,12.5c0.7,12.2,0.1,24.4-1.8,36.3l-3,13c6.5,4.8,9.5,12.2,13.6,18.8
	c-0.4-0.7,2.1-6.2,2.4-7.1c0.8-2.5,1.5-5,2.2-7.6c1.4-5.2,2.5-10.4,3.4-15.7C198.8-181.9,198.2-193.4,195.4-204.2z"/>
<path class="st1" d="M175.4-159.4c6.5,4.8,9.5,12.2,13.6,18.8c-1.8,5.4-4,10.7-6.6,15.9c-18,36-45,62.8-81.2,80.3
	C82.5-35.8,63.1-30.8,43-29.3c-10.9-1.9-14.1-9.5-15.4-19.4c-0.1-5.5-0.1-11,0.1-16.5c0.2-4.8-0.5-11.1-0.8-14.6
	c-0.2-1.6,0.4-2.5,1.7-2.8c0.9-0.2,1.8,0.4,2,1.3c0,0.1,0,0.2,0,0.3v31.7c0,0.6,0.5,1.1,1.1,1.1c0,0,0,0,0,0l1.9,0
	c0.6,0,1-0.5,1-1.1l-0.1-9.1l0.3-7.8c0-0.4,0.2-0.9,0.6-1.1l0.6-0.5c0.3-0.2,0.7-0.2,0.9,0.1c0.1,0.1,0.1,0.2,0.2,0.3l0.3,1.9v16.1
	c0,0.6,0.5,1.2,1.2,1.2l0,0h2.6c0.5,0,0.8-0.4,0.8-0.8v-21.4c0-0.5,0.4-1,1-1l1.4,0c0.4,0,0.8,0.3,0.8,0.8c0,0,0,0,0,0v20.6
	c0,0.8,0.6,1.4,1.4,1.4c0,0,0,0,0,0l0.9,0c1,0,1.7-0.8,1.7-1.8v-19.8c0-0.6,0.5-1.1,1.1-1.1h0.8c0.5,0,1,0.4,1,1l0,0v19.3
	c0,0.6,0.5,1.1,1.1,1.1c0,0,0,0,0,0l1.9-0.1c0.8,0,1.5-0.7,1.4-1.5c0,0,0,0,0,0l-0.4-18.8c0-0.4,0.3-0.7,0.7-0.8c0,0,0,0,0,0
	l2.3-0.1c0.3,0,0.6,0.2,0.6,0.6v18.5c0,0.4,0.3,0.7,0.7,0.7l0,0h2.6c0.8,0,1.4-0.6,1.4-1.4c0,0,0,0,0,0l-0.9-38.2
	c0-0.8,0.6-1.5,1.4-1.5c0,0,0,0,0,0l0.5,0c0.9,0,1.6,0.7,1.6,1.6c0,0,0,0,0,0v36.7c0,0.8,0.7,1.5,1.5,1.5c0.1,0,0.2,0,0.3,0l0.7-0.2
	c0.9-0.2,1.5-1,1.5-1.8v-15.5c0-0.6,0.5-1.1,1.1-1.1h1.4c0.5,0,0.9,0.4,0.9,0.9c0,0.1,0,0.2,0,0.3c-1,3.4-1.1,8-0.4,13.8
	c0.1,0.6,0.6,1,1.2,1l2.9-0.1c0.7,0,1.2-0.6,1.2-1.2c0-0.1,0-0.3-0.1-0.4c-1.2-3-1.4-7.5-0.6-13.5c0.1-0.4,0.4-0.7,0.8-0.7h2.1
	c0.5,0,0.8,0.4,0.8,0.8c0,0.1,0,0.2,0,0.3c-1.1,3.3-1.1,7-0.1,11.1c0.2,0.8,0.9,1.3,1.7,1.3l0.7,0c0.8,0,1.4-0.7,1.4-1.5
	c0,0,0,0,0,0l-0.3-10.8c0-0.8,0.6-1.5,1.4-1.5c0,0,0,0,0,0h0.5c0.7,0,1.3,0.5,1.3,1.2c0,0,0,0,0,0l0.2,8.2c0,0.9,0.8,1.6,1.7,1.6
	c0.4,0,0.7-0.1,1-0.4l0.7-0.6c0.5-0.4,0.8-1,0.7-1.6L92.9-70c0-0.6,0.5-1.1,1.1-1.1c0,0,0,0,0,0h0.5c1,0,1.9,0.8,1.9,1.8l0.1,4.3
	c0,0.4,0.4,0.8,0.8,0.8c0.1,0,0.2,0,0.3-0.1c2.8-1.1,4-2.7,3.3-4.6c-1.2-3.7-0.8-8.4-0.7-12c0-0.9,0.7-1.6,1.6-1.7l0.5,0
	c0.6,0,1.2,0.5,1.2,1.2c0,0,0,0,0,0v12.2c0,0.5,0.5,1,1,1c0.2,0,0.3,0,0.5-0.1c12.7-7,23.9-15.7,33.8-26.1
	C156.3-112.9,168.5-134.6,175.4-159.4z"/>
<path class="st1" d="M-19.9-119c2-0.5,4.1-0.5,6.3,0.1c0.5,0.1,0.9,0.5,1.1,1l2,4.8c0.2,0.5,0.6,0.9,1.2,1.1
	c1.3,0.5,2.8,0.4,4.5-0.1c0.6-0.2,1-0.6,1.2-1.2c0.8-2.7,0.4-4.8-1.3-6c-2.3-1.8-5.6-3.9-9.8-6.5c-8.7-5.3-9-19,2.1-21.7
	c9.5-2.3,18.5,0.8,18.9,11.9c0,1-0.7,1.8-1.6,1.9c-2.9,0.3-5,0.2-6.4-0.3c-0.5-0.2-0.9-0.5-1.2-1c-1.6-2.6-1.4-6.5-6.1-5.1
	c-1.6,0.5-2.6,2-2.2,3.4c0,0.1,0,0.1,0.1,0.2c0.6,1.5,1.5,2.7,2.8,3.5c6.2,3.8,14,7.9,14.9,15.3c1.4,11.5-7.5,14.5-16.9,13.4
	c-5.8-0.6-9.5-4.1-10.9-10.4C-21.9-116.8-21.2-118.7-19.9-119C-19.9-119-19.9-119-19.9-119z"/>
<path class="st1" d="M77.9-118.8c0.8,0.1,1.3,0.8,1.3,1.6c0.2,7.5-3.4,11.7-10.9,12.8c-10.3,1.5-17.5-1.7-17.9-13.2
	c-0.3-7.7-0.2-14,0.1-18.9c0.5-6.5,3.7-10.3,9.7-11.3c5.6-1,13-0.6,16.7,4.3c3,3.9,2.5,12.8,2.2,17.4c0,0.7-0.6,1.2-1.3,1.2l-17,0.1
	c-0.7,0-1.3,0.6-1.3,1.3c0,1.6,0.2,4.3,0.5,8.3c0.2,2.7,2.1,3.9,5.8,3.6c1.5-0.1,2.7-1.2,3-2.6l0.8-3c0.1-0.5,0.6-0.9,1.1-1
	C73.6-119,75.9-119.1,77.9-118.8z M61.9-132.1l6.1-0.2c1,0,1.7-0.9,1.7-1.8c0,0,0,0,0,0l-0.1-2.2c-0.1-2.1-1.8-3.7-3.8-3.7
	c0,0,0,0,0,0l-2.2,0.1c-2,0.1-3.6,1.8-3.5,3.9l0.1,2.2C60.2-132.9,61-132.1,61.9-132.1C61.9-132.1,61.9-132.1,61.9-132.1z"/>
<path class="st1" d="M11.8-147.7l5,0c1.2,0,2.1,1,2.1,2.1l0.1,38.2c0,1.2-1,2.1-2.1,2.1l-5,0c-1.2,0-2.1-1-2.1-2.1l-0.1-38.2
	C9.7-146.8,10.6-147.7,11.8-147.7z"/>
<path class="st1" d="M35.8-139.5l-10.5,0c-1.5,0-2.6-1.2-2.6-2.7c0,0,0,0,0,0v-2.8c0-1.4,1.1-2.5,2.4-2.5c0,0,0,0,0,0l21.3,0.1
	c0.9,0,1.6,0.7,1.7,1.5c0.3,3.4-0.2,6.2-1.4,8.6c-4.8,9.2-8.8,16.7-12.1,22.4c-0.3,0.5-0.1,1.2,0.4,1.6c0.2,0.1,0.4,0.2,0.6,0.2
	l9.8,0c1.9,0,3.4,1.5,3.4,3.4c0,0,0,0,0,0v1.6c0,1.5-1.2,2.7-2.7,2.7c0,0,0,0,0,0l-21.8-0.1c-0.8,0-1.4-0.6-1.5-1.4
	c-0.3-4.1,0.7-8.1,2.8-11.9c5-9.1,8.6-15.7,10.7-19.8c0.2-0.3,0-0.7-0.3-0.9C36-139.4,35.9-139.5,35.8-139.5z"/>
<path class="st2" d="M61.9-132.1c-1,0-1.8-0.7-1.8-1.7c0,0,0,0,0,0L60-136c-0.1-2.1,1.5-3.9,3.5-3.9l2.2-0.1c2-0.1,3.8,1.6,3.8,3.7
	c0,0,0,0,0,0l0.1,2.2c0,1-0.7,1.8-1.7,1.8c0,0,0,0,0,0L61.9-132.1z"/>
<path class="st1" d="M37.5-65.5l-0.3-1.9c0-0.4-0.4-0.6-0.7-0.6c-0.1,0-0.2,0.1-0.3,0.2l-0.6,0.5C35.2-67,35-66.6,35-66.1l-0.3,7.8
	l-0.1-12.1c0-0.6,0.5-1.1,1.1-1.2c0.9,0,1.7,0.2,2.4,0.7c0.5,0.3,0.7,0.9,0.6,1.5L37.5-65.5z"/>
<path class="st1" d="M-59.3-53.3C-67-56.2-73.8-61-79.4-67.6L-59.3-53.3z"/>
<linearGradient id="SVGID_00000107557793890166760790000005876895596679536054_" gradientUnits="userSpaceOnUse" x1="163.6243" y1="-322.0014" x2="84.493" y2="-263.9718">
	<stop  offset="0" style="stop-color:#000000"/>
	<stop  offset="0" style="stop-color:#7E7E7E"/>
	<stop  offset="0.1959" style="stop-color:#000000"/>
	<stop  offset="0.3567" style="stop-color:#3A3A3A"/>
	<stop  offset="0.5" style="stop-color:#3F3F3F"/>
	<stop  offset="0.6433" style="stop-color:#797979"/>
	<stop  offset="0.8041" style="stop-color:#727272"/>
	<stop  offset="1" style="stop-color:#101010"/>
</linearGradient>
<path style="fill:url(#SVGID_00000107557793890166760790000005876895596679536054_);" d="M191.1-216.2C150.4-333,49-364.6,49-364.6
	C55.6-219.7,196.3-209.4,191.1-216.2z"/>
<path class="st1" d="M39.6-296.6c14.2,6.7,22,18.1,23.6,34.2l0.3,7.7c0,0.4-0.3,0.7-0.6,0.7c0,0,0,0,0,0L34-253.4c-0.6,0-1-0.4-1-1
	c0,0,0,0,0,0c-0.5-10.3-2.2-20.7-14.2-21.2c-8.2-0.3-12.8,3.1-13.7,10.4c-1.1,8.4,6.8,13.7,13.2,17.6c17.9,10.9,41.4,22.1,46,45.2
	c2.4,12.4,1,24.6-7.1,34.6c-11.9,11.5-27.8,12.6-43.8,12c-18.5-0.7-34-11.1-38.8-29c-1.2-4.4-1.8-10.4-1.9-18c0-0.6,0.5-1.1,1.1-1.1
	c0,0,0,0,0,0H2.5c0.7,0,1.3,0.6,1.3,1.3c0,0,0,0.1,0,0.1c-0.6,8.8-0.6,18.4,9.4,21.5c5.3,1.6,15.9,0.7,18.9-5.3
	c4.7-9.5-1.3-18.2-9.3-23.3c-13.4-8.6-20.9-13.4-22.6-14.4c-9.3-5.6-15.6-10.7-18.9-15.3c-9.9-13.7-10.9-35.4,1.6-48.4
	C-3.2-302,21.6-302.9,39.6-296.6z"/>
<path class="st0" d="M542.7-206.9l-6.3-13c0,0,7.6-3.6,8.3-3.6s15.5,6,15.5,6s4.6,3.3,5.1,4s-0.7,5.6-1.2,6.6c-0.5,1-5.2,2.1-9,1.6
	C551.2-205.7,542.7-206.9,542.7-206.9z"/>
<path class="st1" d="M428.7-364.6c3.6,5.6,5.9,11.2,6.9,16.8c-1.6,0.2-2.6,0.1-3.2-0.2c-15.9-2.7-32-2.6-48.3,0.1
	c-15.9,2.5-31.1,7.5-45.4,15l-6.1-18c20.5-10,42-15.8,64.7-17.4c6.9-0.5,13.8-0.4,20.7,0.4C422.3-367.5,425.9-366.4,428.7-364.6z"/>
<path class="st1" d="M332.5-351l6.1,18c-8.3,4.4-16.2,9.6-23.8,15.4c-22.7,18-39,40.6-49,67.9c-6.7-2.1-12.1-5.8-16.1-11.2
	C266.3-301.1,293.9-331.1,332.5-351z"/>
<path class="st0" d="M432.4-348c4.4,8.7,6.6,14.7,6.7,17.8c0.2,6.2,1.5,12.3,4,18.2c11.2,33.2,39.9,54.5,71.3,68.1
	c3.8,1.8,7.6,3.6,11.5,5.4c14.3,6.6,23.6,18.5,33.9,29.8c0.7,12.2,0.1,24.4-1.8,36.3c-26-24.9-51.6-50.2-76.7-76
	c-14.1-14.5-26.7-27.1-37.6-37.8c-25.2-24.7-40.1-38.9-59.6-61.9C400.4-350.7,416.5-350.7,432.4-348z"/>
<path class="st0" d="M384.1-348c19.5,23,34.4,37.3,59.6,61.9c10.9,10.7,23.5,23.3,37.6,37.8c25.1,25.7,50.7,51,76.7,76l-3,13
	c-6.9,24.8-19.1,46.5-36.7,64.9c-16.3-16.1-31.8-34-46.4-53.8c-5.8-7.9-13-16.1-21.4-24.6l-0.1-9.1c0-0.7-0.6-1.3-1.3-1.3h-49.4
	c-0.3,0-0.5-0.2-0.5-0.5l0,0v-106.5c0-0.5-0.4-1-1-1l0,0h-30.3c-0.6,0-1,0.5-1,1l0.2,29.8c-16.5-19.7-33.8-38.7-52.1-57.1
	c7.6-5.9,15.5-11,23.8-15.4C353.1-340.5,368.2-345.5,384.1-348z"/>
<path class="st0" d="M314.9-317.6c18.3,18.4,35.7,37.4,52.1,57.1l-0.1,103.4c0,0.8,0.7,1.5,1.5,1.5c0,0,0,0,0,0h81.4
	c0.4,0,0.8-0.3,0.8-0.8c0,0,0,0,0,0l0-16.6c8.4,8.5,15.6,16.7,21.4,24.6c14.6,19.8,30.1,37.7,46.4,53.8
	c-9.9,10.4-21.1,19.1-33.8,26.1c-0.5,0.3-1.1,0.1-1.4-0.4c-0.1-0.1-0.1-0.3-0.1-0.5v-12.2c0-0.6-0.5-1.2-1.2-1.2c0,0,0,0,0,0l-0.5,0
	c-0.9,0-1.6,0.8-1.6,1.7c-0.1,3.6-0.4,8.3,0.7,12c0.6,1.9-0.5,3.5-3.3,4.6c-0.4,0.2-0.9,0-1-0.4c0-0.1,0-0.2-0.1-0.3l-0.1-4.3
	c0-1-0.9-1.8-1.9-1.8h-0.5c-0.6,0-1.1,0.5-1.1,1.1c0,0,0,0,0,0l0.2,6.9c0,0.6-0.3,1.2-0.7,1.6l-0.7,0.6c-0.7,0.6-1.7,0.5-2.3-0.2
	c-0.2-0.3-0.4-0.6-0.4-1l-0.2-8.2c0-0.7-0.6-1.2-1.3-1.2c0,0,0,0,0,0h-0.5c-0.8,0-1.4,0.7-1.4,1.5c0,0,0,0,0,0l0.3,10.8
	c0,0.8-0.6,1.4-1.4,1.5c0,0,0,0,0,0l-0.7,0c-0.8,0-1.5-0.5-1.7-1.3c-1-4.1-1-7.8,0.1-11.1c0.1-0.4-0.1-0.9-0.5-1c-0.1,0-0.2,0-0.3,0
	H459c-0.4,0-0.7,0.3-0.8,0.7c-0.8,5.9-0.6,10.4,0.6,13.5c0.3,0.6,0,1.3-0.7,1.6c-0.1,0.1-0.3,0.1-0.4,0.1l-2.9,0.1
	c-0.6,0-1.1-0.4-1.2-1c-0.7-5.8-0.6-10.4,0.4-13.8c0.1-0.5-0.1-1-0.6-1.2c-0.1,0-0.2,0-0.3,0h-1.4c-0.6,0-1.1,0.5-1.1,1.1v15.5
	c0,0.9-0.6,1.7-1.5,1.8l-0.7,0.2c-0.8,0.2-1.6-0.4-1.8-1.2c0-0.1,0-0.2,0-0.3v-36.7c0-0.9-0.7-1.6-1.6-1.6c0,0,0,0,0,0l-0.5,0
	c-0.8,0-1.5,0.7-1.4,1.5c0,0,0,0,0,0l0.9,38.2c0,0.8-0.6,1.4-1.4,1.4c0,0,0,0,0,0H440c-0.4,0-0.7-0.3-0.7-0.7v0v-18.5
	c0-0.3-0.2-0.6-0.6-0.6l-2.3,0.1c-0.4,0-0.7,0.3-0.7,0.8c0,0,0,0,0,0l0.4,18.8c0,0.8-0.6,1.5-1.4,1.5c0,0,0,0,0,0l-1.9,0.1
	c-0.6,0-1.1-0.5-1.1-1.1c0,0,0,0,0,0v-19.3c0-0.5-0.4-1-1-1l0,0h-0.8c-0.6,0-1.1,0.5-1.1,1.1v19.8c0,1-0.8,1.7-1.7,1.8l-0.9,0
	c-0.8,0-1.4-0.6-1.4-1.3c0,0,0,0,0,0v-20.6c0-0.4-0.3-0.8-0.8-0.8c0,0,0,0,0,0l-1.4,0c-0.5,0-1,0.5-1,1v21.4c0,0.5-0.4,0.8-0.8,0.8
	h-2.6c-0.6,0-1.2-0.5-1.2-1.2v0v-16.1l1.1-3.9c0.2-0.6-0.1-1.2-0.6-1.5c-0.7-0.5-1.5-0.7-2.4-0.7c-0.6,0-1.1,0.5-1.1,1.2l0.1,12.1
	l0.1,9.1c0,0.6-0.4,1-1,1.1l-1.9,0c-0.6,0-1.1-0.5-1.1-1.1c0,0,0,0,0,0v-31.7c0-0.9-0.8-1.7-1.7-1.7c-0.1,0-0.2,0-0.3,0
	c-1.3,0.3-1.9,1.2-1.7,2.8c0.3,3.4,1,9.8,0.8,14.6c-0.2,5.5-0.3,11-0.1,16.5c-1.3,0.8-2.4,0.9-3.3,0.2c-0.4-0.3-0.7-0.8-0.7-1.3
	v-20.6c0-0.6-0.5-1.1-1.1-1.1h-2.1c-0.5,0-0.9,0.4-0.9,0.9c0,0,0,0,0,0l0.5,21.3c0,0.5-0.4,0.9-0.9,0.9c0,0,0,0,0,0H397
	c-0.8,0-1.5-0.7-1.5-1.5c0,0,0,0,0,0v-20.3c0-0.6-0.5-1.2-1.2-1.2l0,0h-0.9c-0.6,0-1.1,0.5-1.1,1.1v20.2c0,0.7-0.5,1.2-1.2,1.2l0,0
	h-0.7c-1,0-1.8-0.8-1.8-1.8l0,0V-70c0-0.9-0.7-1.6-1.6-1.6c-0.2,0-0.3,0-0.5,0.1c-0.5,0.2-0.9,0.3-1.1,0.5c-0.6,0.3-0.7,0.8-0.3,1.2
	c0.5,0.6,0.5,4.6,0,12c-0.1,1.1,0.1,3.4,0.6,6.9c0.1,0.5-0.3,0.9-0.8,1c0,0-0.1,0-0.1,0h-1.9c-0.7,0-1.3-0.6-1.3-1.3l0,0v-18.2
	c0-1-0.8-1.8-1.8-1.8c0,0,0,0,0,0h-1.2c-0.6,0-1.2,0.5-1.2,1.1c0,0,0,0,0,0l0.4,18.5c0,0.2-0.2,0.3-0.3,0.3l0,0H374
	c-0.3,0-0.5-0.2-0.5-0.5c0.1-12,0.3-24.6,0.5-37.6c0-1.5-0.5-2.5-1.5-3.3c-0.8-0.5-1.8-0.3-2.3,0.4c-0.2,0.3-0.3,0.6-0.3,1l0.9,37.1
	c0,0.7-0.6,1.3-1.3,1.3c0,0,0,0,0,0H369c-1.3,0-2.3-1-2.3-2.3v0v-15c0-0.7-0.6-1.3-1.3-1.3l0,0h-0.9c-0.7,0-1.2,0.6-1.2,1.2v12.9
	c0,1.1-0.9,2-1.9,2l0,0h-0.5c-0.9,0-1.7-0.8-1.7-1.7l0,0v-13c0-0.8-0.6-1.4-1.4-1.4h-0.6c-0.7,0-1.3,0.6-1.3,1.3v11.1
	c0,0.8-0.6,1.4-1.4,1.4c0,0,0,0,0,0H354c-1,0-1.9-0.8-1.9-1.8c0,0,0,0,0,0v-10.6c0-0.8-0.7-1.5-1.5-1.5c0,0,0,0,0,0l-0.7,0
	c-0.8,0-1.4,0.7-1.4,1.5v8.3c0,0.6-0.5,1-1,1c-0.1,0-0.2,0-0.2,0c-5-1.2-2.4-5.8-1.6-9c0.2-0.6-0.2-1.2-0.8-1.3c-0.1,0-0.2,0-0.3,0
	h-2.1c-1,0-1.8,0.8-1.8,1.8l0,0v3.6c0,0.8-0.6,1.4-1.4,1.4c-0.2,0-0.3,0-0.5-0.1l-0.6-0.2c-0.5-0.2-0.9-0.7-0.9-1.3l0.5-13.8
	c0.1-1.5-1-2.8-2.5-3l-0.6,0.1c-0.8,0.1-1.3,0.7-1.3,1.5l0.3,11.5c0,0.6-0.5,1.1-1.1,1.1c-0.2,0-0.5-0.1-0.7-0.2
	c-3.9-2.9-10.2-5.8-14.7-9.3c-27.4-21.2-45.6-47.9-54.7-80c-8.6-30.3-7.5-60.8,3.2-91.6C275.8-277,292.2-299.6,314.9-317.6z
	 M359.8-119c-1.3,0.3-2,2.2-1.5,4.3c0,0,0,0,0,0c1.5,6.3,5.1,9.8,10.9,10.4c9.3,1.1,18.3-2,16.9-13.4c-0.9-7.4-8.7-11.5-14.9-15.3
	c-1.3-0.8-2.2-1.9-2.8-3.5c-0.5-1.4,0.3-2.9,1.9-3.5c0.1,0,0.1-0.1,0.2-0.1c4.7-1.4,4.5,2.5,6.1,5.1c0.3,0.5,0.7,0.8,1.2,1
	c1.4,0.5,3.5,0.6,6.4,0.3c1-0.1,1.7-0.9,1.6-1.9c-0.5-11.1-9.5-14.2-18.9-11.9c-11.1,2.7-10.7,16.5-2.1,21.7
	c4.2,2.6,7.5,4.7,9.8,6.5c1.7,1.3,2.1,3.3,1.3,6c-0.2,0.6-0.6,1-1.2,1.2c-1.7,0.5-3.2,0.5-4.5,0.1c-0.5-0.2-1-0.6-1.2-1.1l-2-4.8
	c-0.2-0.5-0.6-0.8-1.1-1C363.9-119.5,361.8-119.5,359.8-119z M457.6-118.8c-2-0.3-4.4-0.2-7.1,0.3c-0.5,0.1-0.9,0.5-1.1,1l-0.8,3
	c-0.3,1.4-1.6,2.5-3,2.6c-3.6,0.3-5.6-0.9-5.8-3.6c-0.3-3.9-0.5-6.7-0.5-8.3c0-0.7,0.6-1.3,1.3-1.3l17-0.1c0.7,0,1.2-0.5,1.3-1.2
	c0.3-4.6,0.8-13.4-2.2-17.4c-3.8-4.9-11.1-5.3-16.7-4.3c-6,1-9.3,4.8-9.7,11.3c-0.3,4.9-0.4,11.1-0.1,18.9
	c0.4,11.5,7.6,14.7,17.9,13.2c7.5-1.1,11.1-5.4,10.9-12.8C458.9-118,458.4-118.7,457.6-118.8z M398.6-145.6c0-1.2-1-2.1-2.1-2.1
	c0,0,0,0,0,0l-5,0c-1.2,0-2.1,1-2.1,2.1l0,0l0.1,38.2c0,1.2,1,2.1,2.1,2.1l0,0l5,0c1.2,0,2.1-1,2.1-2.1v0L398.6-145.6z M415.4-139.5
	c0.4,0,0.6,0.3,0.6,0.6c0,0.1,0,0.2-0.1,0.3c-2.1,4.1-5.7,10.7-10.7,19.8c-2.1,3.8-3,7.8-2.8,11.9c0,0.8,0.7,1.4,1.5,1.4l21.8,0.1
	c1.5,0,2.7-1.2,2.7-2.7c0,0,0,0,0,0v-1.6c0-1.9-1.5-3.4-3.4-3.4h0l-9.8,0c-0.6,0-1.1-0.5-1.1-1.1c0-0.2,0.1-0.4,0.2-0.6
	c3.3-5.7,7.3-13.1,12.1-22.4c1.2-2.4,1.7-5.3,1.4-8.6c-0.1-0.9-0.8-1.5-1.7-1.5l-21.3-0.1c-1.3,0-2.4,1.1-2.5,2.4c0,0,0,0,0,0v2.8
	c0,1.5,1.2,2.7,2.6,2.7h0L415.4-139.5z"/>
<path class="st0" d="M450.6-172.9l0,16.6c0,0.4-0.4,0.8-0.8,0.8l0,0h-81.4c-0.8,0-1.5-0.7-1.5-1.5v0l0.1-103.4l-0.2-29.8
	c0-0.6,0.5-1,1-1h30.3c0.5,0,1,0.4,1,1l0,0v106.5c0,0.3,0.2,0.5,0.5,0.5l0,0h49.4c0.7,0,1.3,0.6,1.3,1.3L450.6-172.9z"/>
<path class="st1" d="M249.7-260.8c4,5.4,9.4,9.1,16.1,11.2c-10.7,30.8-11.8,61.3-3.2,91.6c9.1,32.1,27.3,58.8,54.7,80
	c4.5,3.5,10.7,6.3,14.7,9.3c0.5,0.4,1.2,0.3,1.5-0.2c0.1-0.2,0.2-0.4,0.2-0.7l-0.3-11.5c0-0.8,0.6-1.4,1.3-1.5l0.6-0.1
	c1.5,0.2,2.6,1.5,2.5,3L337.4-66c0,0.6,0.3,1.1,0.9,1.3l0.6,0.2c0.7,0.3,1.5-0.1,1.7-0.8c0.1-0.1,0.1-0.3,0.1-0.5v-3.6
	c0-1,0.8-1.8,1.8-1.8l0,0h2.1c0.6,0,1.1,0.5,1.1,1.1c0,0.1,0,0.2,0,0.3c-0.9,3.2-3.4,7.7,1.6,9c0.6,0.1,1.1-0.2,1.3-0.8
	c0-0.1,0-0.2,0-0.2v-8.3c0-0.8,0.6-1.5,1.4-1.5l0.7,0c0.8,0,1.5,0.7,1.6,1.5c0,0,0,0,0,0v10.6c0,1,0.8,1.8,1.9,1.8h0h0.5
	c0.8,0,1.4-0.6,1.4-1.4v0v-11.1c0-0.7,0.6-1.3,1.3-1.3h0.6c0.8,0,1.4,0.6,1.4,1.4v13c0,0.9,0.8,1.7,1.7,1.7l0,0h0.5
	c1.1,0,1.9-0.9,1.9-2c0,0,0,0,0,0v-12.9c0-0.7,0.6-1.2,1.2-1.2h0.9c0.7,0,1.3,0.6,1.3,1.3l0,0v15c0,1.3,1,2.3,2.3,2.3l0,0h0.5
	c0.7,0,1.3-0.6,1.3-1.3c0,0,0,0,0,0l-0.9-37.1c0-0.9,0.7-1.7,1.6-1.7c0.4,0,0.7,0.1,1,0.3c1,0.7,1.5,1.8,1.5,3.3
	c-0.2,13-0.4,25.6-0.5,37.6c0,0.3,0.2,0.5,0.5,0.5h3.5c0.2,0,0.3-0.1,0.3-0.3l0,0l-0.4-18.5c0-0.6,0.5-1.2,1.1-1.2c0,0,0,0,0,0h1.2
	c1,0,1.8,0.8,1.8,1.8v0v18.2c0,0.7,0.6,1.3,1.3,1.3l0,0h1.9c0.5,0,0.9-0.4,0.9-0.9c0,0,0-0.1,0-0.1c-0.5-3.5-0.7-5.8-0.6-6.9
	c0.5-7.3,0.5-11.3,0-12c-0.4-0.5-0.3-0.9,0.3-1.2c0.3-0.2,0.7-0.3,1.1-0.5c0.9-0.3,1.8,0.2,2.1,1.1c0.1,0.2,0.1,0.3,0.1,0.5v19.3
	c0,1,0.8,1.8,1.8,1.8l0,0h0.7c0.7,0,1.2-0.5,1.2-1.2l0,0v-20.2c0-0.6,0.5-1.1,1.1-1.1h0.9c0.6,0,1.2,0.5,1.2,1.2l0,0V-50
	c0,0.8,0.7,1.5,1.5,1.5l0,0h1.8c0.5,0,0.9-0.4,0.9-0.9c0,0,0,0,0,0l-0.5-21.3c0-0.5,0.4-0.9,0.9-0.9c0,0,0,0,0,0h2.1
	c0.6,0,1.1,0.5,1.1,1.1v20.6c0,0.5,0.3,1,0.7,1.3c0.9,0.7,2,0.6,3.3-0.2c1.3,9.9,4.5,17.5,15.4,19.4c-7.9,0.9-15.6,1.1-23.2,0.6
	c-28.6-1.7-54.9-9.9-79-24.7l-20.1-14.3c-17.7-15.3-31.5-31.9-41.4-49.7c-16.8-30.3-23.3-63.6-19.5-100c0.7-6.6,1.5-13.1,2.4-19.7
	L249.7-260.8z"/>
<path class="st1" d="M575.1-204.2c-0.9-3.5-2-7-3.4-10.3c-0.1-0.3-0.2-0.6-0.3-0.9c-1-1.2-2-2.5-3-3.6l-7.7-3.5
	c-0.2-0.1-0.5-0.1-0.7-0.1c-0.8,0.1-1.3,0.7-1.3,1.5l1.1,12.5c0.7,12.2,0.1,24.4-1.8,36.3l-3,13c6.5,4.8,9.5,12.2,13.6,18.8
	c-0.4-0.7,2.1-6.2,2.4-7.1c0.8-2.5,1.5-5,2.2-7.6c1.4-5.2,2.5-10.4,3.4-15.7C578.5-181.9,577.8-193.4,575.1-204.2z"/>
<path class="st1" d="M555.1-159.4c6.5,4.8,9.5,12.2,13.6,18.8c-1.8,5.4-4,10.7-6.6,15.9c-18,36-45,62.8-81.2,80.3
	c-18.7,8.5-38.2,13.5-58.3,15.1c-10.9-1.9-14.1-9.5-15.4-19.4c-0.1-5.5-0.1-11,0.1-16.5c0.2-4.8-0.5-11.1-0.8-14.6
	c-0.2-1.6,0.4-2.5,1.7-2.8c0.9-0.2,1.8,0.4,2,1.3c0,0.1,0,0.2,0,0.3v31.7c0,0.6,0.5,1.1,1.1,1.1c0,0,0,0,0,0l1.9,0
	c0.6,0,1-0.5,1-1.1l-0.1-9.1l0.3-7.8c0-0.4,0.2-0.9,0.6-1.1l0.6-0.5c0.3-0.2,0.7-0.2,0.9,0.1c0.1,0.1,0.1,0.2,0.2,0.3l0.3,1.9v16.1
	c0,0.6,0.5,1.2,1.2,1.2l0,0h2.6c0.5,0,0.8-0.4,0.8-0.8v-21.4c0-0.5,0.4-1,1-1l1.4,0c0.4,0,0.8,0.3,0.8,0.8c0,0,0,0,0,0v20.6
	c0,0.8,0.6,1.4,1.4,1.4c0,0,0,0,0,0l0.9,0c1,0,1.7-0.8,1.7-1.8v-19.8c0-0.6,0.5-1.1,1.1-1.1h0.8c0.5,0,1,0.4,1,1l0,0v19.3
	c0,0.6,0.5,1.1,1.1,1.1c0,0,0,0,0,0l1.9-0.1c0.8,0,1.5-0.7,1.4-1.5c0,0,0,0,0,0l-0.4-18.8c0-0.4,0.3-0.7,0.7-0.8c0,0,0,0,0,0
	l2.3-0.1c0.3,0,0.6,0.2,0.6,0.6v18.5c0,0.4,0.3,0.7,0.7,0.7l0,0h2.6c0.8,0,1.4-0.6,1.4-1.4c0,0,0,0,0,0l-0.9-38.2
	c0-0.8,0.6-1.5,1.4-1.5c0,0,0,0,0,0l0.5,0c0.9,0,1.6,0.7,1.6,1.6c0,0,0,0,0,0v36.7c0,0.8,0.7,1.5,1.5,1.5c0.1,0,0.2,0,0.3,0l0.7-0.2
	c0.9-0.2,1.5-1,1.5-1.8v-15.5c0-0.6,0.5-1.1,1.1-1.1h1.4c0.5,0,0.9,0.4,0.9,0.9c0,0.1,0,0.2,0,0.3c-1,3.4-1.1,8-0.4,13.8
	c0.1,0.6,0.6,1,1.2,1l2.9-0.1c0.7,0,1.2-0.6,1.2-1.2c0-0.1,0-0.3-0.1-0.4c-1.2-3-1.4-7.5-0.6-13.5c0.1-0.4,0.4-0.7,0.8-0.7h2.1
	c0.5,0,0.8,0.4,0.8,0.8c0,0.1,0,0.2,0,0.3c-1.1,3.3-1.1,7-0.1,11.1c0.2,0.8,0.9,1.3,1.7,1.3l0.7,0c0.8,0,1.4-0.7,1.4-1.5
	c0,0,0,0,0,0l-0.3-10.8c0-0.8,0.6-1.5,1.4-1.5c0,0,0,0,0,0h0.5c0.7,0,1.3,0.5,1.3,1.2c0,0,0,0,0,0l0.2,8.2c0,0.9,0.8,1.6,1.7,1.6
	c0.4,0,0.7-0.1,1-0.4l0.7-0.6c0.5-0.4,0.8-1,0.7-1.6l-0.2-6.9c0-0.6,0.5-1.1,1.1-1.1c0,0,0,0,0,0h0.5c1,0,1.9,0.8,1.9,1.8l0.1,4.3
	c0,0.4,0.4,0.8,0.8,0.8c0.1,0,0.2,0,0.3-0.1c2.8-1.1,4-2.7,3.3-4.6c-1.2-3.7-0.8-8.4-0.7-12c0-0.9,0.7-1.6,1.6-1.7l0.5,0
	c0.6,0,1.2,0.5,1.2,1.2c0,0,0,0,0,0v12.2c0,0.5,0.5,1,1,1c0.2,0,0.3,0,0.5-0.1c12.7-7,23.9-15.7,33.8-26.1
	C536-112.9,548.2-134.6,555.1-159.4z"/>
<path class="st1" d="M359.8-119c2-0.5,4.1-0.5,6.3,0.1c0.5,0.1,0.9,0.5,1.1,1l2,4.8c0.2,0.5,0.6,0.9,1.2,1.1
	c1.3,0.5,2.8,0.4,4.5-0.1c0.6-0.2,1-0.6,1.2-1.2c0.8-2.7,0.4-4.8-1.3-6c-2.3-1.8-5.6-3.9-9.8-6.5c-8.7-5.3-9-19,2.1-21.7
	c9.5-2.3,18.5,0.8,18.9,11.9c0,1-0.7,1.8-1.6,1.9c-2.9,0.3-5,0.2-6.4-0.3c-0.5-0.2-0.9-0.5-1.2-1c-1.6-2.6-1.4-6.5-6.1-5.1
	c-1.6,0.5-2.6,2-2.2,3.4c0,0.1,0,0.1,0.1,0.2c0.6,1.5,1.5,2.7,2.8,3.5c6.2,3.8,14,7.9,14.9,15.3c1.4,11.5-7.5,14.5-16.9,13.4
	c-5.8-0.6-9.5-4.1-10.9-10.4C357.8-116.8,358.5-118.7,359.8-119C359.8-119,359.8-119,359.8-119z"/>
<path class="st1" d="M457.6-118.8c0.8,0.1,1.3,0.8,1.3,1.6c0.2,7.5-3.4,11.7-10.9,12.8c-10.3,1.5-17.5-1.7-17.9-13.2
	c-0.3-7.7-0.2-14,0.1-18.9c0.5-6.5,3.7-10.3,9.7-11.3c5.6-1,13-0.6,16.7,4.3c3,3.9,2.5,12.8,2.2,17.4c0,0.7-0.6,1.2-1.3,1.2l-17,0.1
	c-0.7,0-1.3,0.6-1.3,1.3c0,1.6,0.2,4.3,0.5,8.3c0.2,2.7,2.1,3.9,5.8,3.6c1.5-0.1,2.7-1.2,3-2.6l0.8-3c0.1-0.5,0.6-0.9,1.1-1
	C453.2-119,455.6-119.1,457.6-118.8z M441.6-132.1l6.1-0.2c1,0,1.7-0.9,1.7-1.8c0,0,0,0,0,0l-0.1-2.2c-0.1-2.1-1.8-3.7-3.8-3.7
	c0,0,0,0,0,0l-2.2,0.1c-2,0.1-3.6,1.8-3.5,3.9l0.1,2.2C439.8-132.9,440.6-132.1,441.6-132.1C441.6-132.1,441.6-132.1,441.6-132.1z"
	/>
<path class="st1" d="M391.5-147.7l5,0c1.2,0,2.1,1,2.1,2.1l0.1,38.2c0,1.2-1,2.1-2.1,2.1l-5,0c-1.2,0-2.1-1-2.1-2.1l-0.1-38.2
	C389.4-146.8,390.3-147.7,391.5-147.7z"/>
<path class="st1" d="M415.4-139.5l-10.5,0c-1.5,0-2.6-1.2-2.6-2.7c0,0,0,0,0,0v-2.8c0-1.4,1.1-2.5,2.4-2.5c0,0,0,0,0,0l21.3,0.1
	c0.9,0,1.6,0.7,1.7,1.5c0.3,3.4-0.2,6.2-1.4,8.6c-4.8,9.2-8.8,16.7-12.1,22.4c-0.3,0.5-0.1,1.2,0.4,1.6c0.2,0.1,0.4,0.2,0.6,0.2
	l9.8,0c1.9,0,3.4,1.5,3.4,3.4c0,0,0,0,0,0v1.6c0,1.5-1.2,2.7-2.7,2.7c0,0,0,0,0,0l-21.8-0.1c-0.8,0-1.4-0.6-1.5-1.4
	c-0.3-4.1,0.7-8.1,2.8-11.9c5-9.1,8.6-15.7,10.7-19.8c0.2-0.3,0-0.7-0.3-0.9C415.6-139.4,415.5-139.5,415.4-139.5z"/>
<path class="st2" d="M441.6-132.1c-1,0-1.8-0.7-1.8-1.7c0,0,0,0,0,0l-0.1-2.2c-0.1-2.1,1.5-3.9,3.5-3.9l2.2-0.1
	c2-0.1,3.8,1.6,3.8,3.7c0,0,0,0,0,0l0.1,2.2c0,1-0.7,1.8-1.7,1.8c0,0,0,0,0,0L441.6-132.1z"/>
<path class="st1" d="M417.2-65.5l-0.3-1.9c0-0.4-0.4-0.6-0.7-0.6c-0.1,0-0.2,0.1-0.3,0.2l-0.6,0.5c-0.3,0.3-0.5,0.7-0.6,1.1
	l-0.3,7.8l-0.1-12.1c0-0.6,0.5-1.1,1.1-1.2c0.9,0,1.7,0.2,2.4,0.7c0.5,0.3,0.7,0.9,0.6,1.5L417.2-65.5z"/>
<path class="st1" d="M320.4-53.3c-7.8-2.9-14.5-7.7-20.1-14.3L320.4-53.3z"/>
<path class="st1" d="M472.7-262.7c-8.5-6.2-14.3-14.8-20.6-23.2l-1.3-1.5c-0.3-0.3-0.7-0.6-1.1-0.6l-4.3-0.5l-9.7,0l-14.4-0.1
	c-0.5,0-0.9,0.3-1,0.8l-12.9,65.7c0,0.1-0.1,0.3-0.3,0.3c-0.2,0-0.4-0.1-0.4-0.3l-14-65.8c-0.1-0.3-0.3-0.5-0.6-0.5h-50.9
	c0,0,0,0,0,0c-0.7,0-1.3,0.6-1.3,1.3l0.1,64l-0.1,63.3c0,0.8,0.7,1.5,1.5,1.5h27.5c0.8,0,1.4-0.6,1.4-1.4l0.2-42.6l-0.1-67.3
	c0-0.2,0.1-0.4,0.3-0.4c0.2-0.1,0.5,0.1,0.6,0.3l23.4,110.1c0.2,0.7,0.7,1.1,1.4,1.1h15.7c1,0,1.8-0.6,2-1.6l27.6-109.7
	c0-0.2,0.2-0.4,0.4-0.3c0.2,0,0.4,0.2,0.3,0.4v110.1c0,0.6,0.5,1.1,1.1,1.1h28.5c0.5,0,0.9-0.4,0.9-1l0.1-66.8l0-34.5
	C473.1-261.3,472.9-262,472.7-262.7z"/>
<linearGradient id="SVGID_00000060017515915410607350000001053726207238960828_" gradientUnits="userSpaceOnUse" x1="543.3026" y1="-322.0014" x2="464.1713" y2="-263.9718">
	<stop  offset="0" style="stop-color:#000000"/>
	<stop  offset="0" style="stop-color:#7E7E7E"/>
	<stop  offset="0.1959" style="stop-color:#000000"/>
	<stop  offset="0.3567" style="stop-color:#3A3A3A"/>
	<stop  offset="0.5" style="stop-color:#3F3F3F"/>
	<stop  offset="0.6433" style="stop-color:#797979"/>
	<stop  offset="0.8041" style="stop-color:#727272"/>
	<stop  offset="1" style="stop-color:#101010"/>
</linearGradient>
<path style="fill:url(#SVGID_00000060017515915410607350000001053726207238960828_);" d="M570.8-216.2
	c-40.7-116.8-142-148.4-142-148.4C435.3-219.7,576-209.4,570.8-216.2z"/>
<path class="st0" d="M918.7-206.9l-6.3-13c0,0,7.6-3.6,8.3-3.6s15.5,6,15.5,6s4.6,3.3,5.1,4s-0.7,5.6-1.2,6.6c-0.5,1-5.2,2.1-9,1.6
	S918.7-206.9,918.7-206.9z"/>
<path class="st1" d="M804.7-364.6c3.6,5.6,5.9,11.2,6.9,16.8c-1.6,0.2-2.6,0.1-3.2-0.2c-15.9-2.7-32-2.6-48.3,0.1
	c-15.9,2.5-31.1,7.5-45.4,15l-6.1-18c20.5-10,42-15.8,64.7-17.4c6.9-0.5,13.8-0.4,20.7,0.4C798.3-367.5,801.9-366.4,804.7-364.6z"/>
<path class="st1" d="M708.6-351l6.1,18c-8.3,4.4-16.2,9.6-23.8,15.4c-22.7,18-39,40.6-49,67.9c-6.7-2.1-12.1-5.8-16.1-11.2
	C642.3-301.1,669.9-331.1,708.6-351z"/>
<path class="st0" d="M808.5-348c4.4,8.7,6.6,14.7,6.7,17.8c0.2,6.2,1.5,12.3,4,18.2c11.2,33.2,39.9,54.5,71.3,68.1
	c3.8,1.8,7.6,3.6,11.5,5.4c14.3,6.6,23.6,18.5,33.9,29.8c0.7,12.2,0.1,24.4-1.8,36.3c-26-24.9-51.6-50.2-76.7-76
	c-14.1-14.5-26.7-27.1-37.6-37.8c-25.2-24.7-40.1-38.9-59.6-61.9C776.4-350.7,792.5-350.7,808.5-348z"/>
<path class="st0" d="M760.1-348c19.5,23,34.4,37.3,59.6,61.9c10.9,10.7,23.5,23.3,37.6,37.8c25.1,25.7,50.7,51,76.7,76l-3,13
	c-6.9,24.8-19.1,46.5-36.7,64.9c-16.3-16.1-31.8-34-46.4-53.8c-5.8-7.9-13-16.1-21.4-24.6l-0.1-9.1c0-0.7-0.6-1.3-1.3-1.3h-49.4
	c-0.3,0-0.5-0.2-0.5-0.5l0,0v-106.5c0-0.5-0.4-1-1-1l0,0h-30.3c-0.6,0-1,0.5-1,1l0.2,29.8c-16.5-19.7-33.8-38.7-52.1-57.1
	c7.6-5.9,15.5-11,23.8-15.4C729.1-340.5,744.2-345.5,760.1-348z"/>
<path class="st0" d="M690.9-317.6c18.3,18.4,35.7,37.4,52.1,57.1l-0.1,103.4c0,0.8,0.7,1.5,1.5,1.5c0,0,0,0,0,0h81.4
	c0.4,0,0.8-0.3,0.8-0.8c0,0,0,0,0,0l0-16.6c8.4,8.5,15.6,16.7,21.4,24.6c14.6,19.8,30.1,37.7,46.4,53.8
	c-9.9,10.4-21.1,19.1-33.8,26.1c-0.5,0.3-1.1,0.1-1.4-0.4c-0.1-0.1-0.1-0.3-0.1-0.5v-12.2c0-0.6-0.5-1.2-1.2-1.2c0,0,0,0,0,0l-0.5,0
	c-0.9,0-1.6,0.8-1.6,1.7c-0.1,3.6-0.4,8.3,0.7,12c0.6,1.9-0.5,3.5-3.3,4.6c-0.4,0.2-0.9,0-1-0.4c0-0.1,0-0.2-0.1-0.3l-0.1-4.3
	c0-1-0.9-1.8-1.9-1.8h-0.5c-0.6,0-1.1,0.5-1.1,1.1c0,0,0,0,0,0l0.2,6.9c0,0.6-0.3,1.2-0.7,1.6l-0.7,0.6c-0.7,0.6-1.7,0.5-2.3-0.2
	c-0.2-0.3-0.4-0.6-0.4-1l-0.2-8.2c0-0.7-0.6-1.2-1.3-1.2c0,0,0,0,0,0h-0.5c-0.8,0-1.4,0.7-1.4,1.5c0,0,0,0,0,0l0.3,10.8
	c0,0.8-0.6,1.4-1.4,1.5c0,0,0,0,0,0l-0.7,0c-0.8,0-1.5-0.5-1.7-1.3c-1-4.1-1-7.8,0.1-11.1c0.1-0.4-0.1-0.9-0.5-1c-0.1,0-0.2,0-0.3,0
	H835c-0.4,0-0.7,0.3-0.8,0.7c-0.8,5.9-0.6,10.4,0.6,13.5c0.3,0.6,0,1.3-0.7,1.6c-0.1,0.1-0.3,0.1-0.4,0.1l-2.9,0.1
	c-0.6,0-1.1-0.4-1.2-1c-0.7-5.8-0.6-10.4,0.4-13.8c0.1-0.5-0.1-1-0.6-1.2c-0.1,0-0.2,0-0.3,0h-1.4c-0.6,0-1.1,0.5-1.1,1.1v15.5
	c0,0.9-0.6,1.7-1.5,1.8l-0.7,0.2c-0.8,0.2-1.6-0.4-1.8-1.2c0-0.1,0-0.2,0-0.3v-36.7c0-0.9-0.7-1.6-1.6-1.6c0,0,0,0,0,0l-0.5,0
	c-0.8,0-1.5,0.7-1.4,1.5c0,0,0,0,0,0l0.9,38.2c0,0.8-0.6,1.4-1.4,1.4c0,0,0,0,0,0H816c-0.4,0-0.7-0.3-0.7-0.7v0v-18.5
	c0-0.3-0.2-0.6-0.6-0.6l-2.3,0.1c-0.4,0-0.7,0.3-0.7,0.8c0,0,0,0,0,0l0.4,18.8c0,0.8-0.6,1.5-1.4,1.5c0,0,0,0,0,0l-1.9,0.1
	c-0.6,0-1.1-0.5-1.1-1.1c0,0,0,0,0,0v-19.3c0-0.5-0.4-1-1-1l0,0h-0.8c-0.6,0-1.1,0.5-1.1,1.1v19.8c0,1-0.8,1.7-1.7,1.8l-0.9,0
	c-0.8,0-1.4-0.6-1.4-1.3c0,0,0,0,0,0v-20.6c0-0.4-0.3-0.8-0.8-0.8c0,0,0,0,0,0l-1.4,0c-0.5,0-1,0.5-1,1v21.4c0,0.5-0.4,0.8-0.8,0.8
	h-2.6c-0.6,0-1.2-0.5-1.2-1.2v0v-16.1l1.1-3.9c0.2-0.6-0.1-1.2-0.6-1.5c-0.7-0.5-1.5-0.7-2.4-0.7c-0.6,0-1.1,0.5-1.1,1.2l0.1,12.1
	l0.1,9.1c0,0.6-0.4,1-1,1.1l-1.9,0c-0.6,0-1.1-0.5-1.1-1.1c0,0,0,0,0,0v-31.7c0-0.9-0.8-1.7-1.7-1.7c-0.1,0-0.2,0-0.3,0
	c-1.3,0.3-1.9,1.2-1.7,2.8c0.3,3.4,1,9.8,0.8,14.6c-0.2,5.5-0.3,11-0.1,16.5c-1.3,0.8-2.4,0.9-3.3,0.2c-0.4-0.3-0.7-0.8-0.7-1.3
	v-20.6c0-0.6-0.5-1.1-1.1-1.1h-2.1c-0.5,0-0.9,0.4-0.9,0.9c0,0,0,0,0,0l0.5,21.3c0,0.5-0.4,0.9-0.9,0.9c0,0,0,0,0,0H773
	c-0.8,0-1.5-0.7-1.5-1.5c0,0,0,0,0,0v-20.3c0-0.6-0.5-1.2-1.2-1.2l0,0h-0.9c-0.6,0-1.1,0.5-1.1,1.1v20.2c0,0.7-0.5,1.2-1.2,1.2l0,0
	h-0.7c-1,0-1.8-0.8-1.8-1.8l0,0V-70c0-0.9-0.7-1.6-1.6-1.6c-0.2,0-0.3,0-0.5,0.1c-0.5,0.2-0.9,0.3-1.1,0.5c-0.6,0.3-0.7,0.8-0.3,1.2
	c0.5,0.6,0.5,4.6,0,12c-0.1,1.1,0.1,3.4,0.6,6.9c0.1,0.5-0.3,0.9-0.8,1c0,0-0.1,0-0.1,0h-1.9c-0.7,0-1.3-0.6-1.3-1.3l0,0v-18.2
	c0-1-0.8-1.8-1.8-1.8c0,0,0,0,0,0h-1.2c-0.6,0-1.2,0.5-1.2,1.1c0,0,0,0,0,0l0.4,18.5c0,0.2-0.2,0.3-0.3,0.3l0,0H750
	c-0.3,0-0.5-0.2-0.5-0.5c0.1-12,0.3-24.6,0.5-37.6c0-1.5-0.5-2.5-1.5-3.3c-0.8-0.5-1.8-0.3-2.3,0.4c-0.2,0.3-0.3,0.6-0.3,1l0.9,37.1
	c0,0.7-0.6,1.3-1.3,1.3c0,0,0,0,0,0H745c-1.3,0-2.3-1-2.3-2.3v0v-15c0-0.7-0.6-1.3-1.3-1.3l0,0h-0.9c-0.7,0-1.2,0.6-1.2,1.2v12.9
	c0,1.1-0.9,2-1.9,2l0,0h-0.5c-0.9,0-1.7-0.8-1.7-1.7l0,0v-13c0-0.8-0.6-1.4-1.4-1.4h-0.6c-0.7,0-1.3,0.6-1.3,1.3v11.1
	c0,0.8-0.6,1.4-1.4,1.4c0,0,0,0,0,0H730c-1,0-1.9-0.8-1.9-1.8c0,0,0,0,0,0v-10.6c0-0.8-0.7-1.5-1.5-1.5c0,0,0,0,0,0l-0.7,0
	c-0.8,0-1.4,0.7-1.4,1.5v8.3c0,0.6-0.5,1-1,1c-0.1,0-0.2,0-0.2,0c-5-1.2-2.4-5.8-1.6-9c0.2-0.6-0.2-1.2-0.8-1.3c-0.1,0-0.2,0-0.3,0
	h-2.1c-1,0-1.8,0.8-1.8,1.8l0,0v3.6c0,0.8-0.6,1.4-1.4,1.4c-0.2,0-0.3,0-0.5-0.1l-0.6-0.2c-0.5-0.2-0.9-0.7-0.9-1.3l0.5-13.8
	c0.1-1.5-1-2.8-2.5-3l-0.6,0.1c-0.8,0.1-1.3,0.7-1.3,1.5l0.3,11.5c0,0.6-0.5,1.1-1.1,1.1c-0.2,0-0.5-0.1-0.7-0.2
	c-3.9-2.9-10.2-5.8-14.7-9.3c-27.4-21.2-45.6-47.9-54.7-80c-8.6-30.3-7.5-60.8,3.2-91.6C651.8-277,668.2-299.6,690.9-317.6z
	 M735.8-119c-1.3,0.3-2,2.2-1.5,4.3c0,0,0,0,0,0c1.5,6.3,5.1,9.8,10.9,10.4c9.3,1.1,18.3-2,16.9-13.4c-0.9-7.4-8.7-11.5-14.9-15.3
	c-1.3-0.8-2.2-1.9-2.8-3.5c-0.5-1.4,0.3-2.9,1.9-3.5c0.1,0,0.1-0.1,0.2-0.1c4.7-1.4,4.5,2.5,6.1,5.1c0.3,0.5,0.7,0.8,1.2,1
	c1.4,0.5,3.5,0.6,6.4,0.3c1-0.1,1.7-0.9,1.6-1.9c-0.5-11.1-9.5-14.2-18.9-11.9c-11.1,2.7-10.7,16.5-2.1,21.7
	c4.2,2.6,7.5,4.7,9.8,6.5c1.7,1.3,2.1,3.3,1.3,6c-0.2,0.6-0.6,1-1.2,1.2c-1.7,0.5-3.2,0.5-4.5,0.1c-0.5-0.2-1-0.6-1.2-1.1l-2-4.8
	c-0.2-0.5-0.6-0.8-1.1-1C739.9-119.5,737.8-119.5,735.8-119z M833.6-118.8c-2-0.3-4.4-0.2-7.1,0.3c-0.5,0.1-0.9,0.5-1.1,1l-0.8,3
	c-0.3,1.4-1.6,2.5-3,2.6c-3.6,0.3-5.6-0.9-5.8-3.6c-0.3-3.9-0.5-6.7-0.5-8.3c0-0.7,0.6-1.3,1.3-1.3l17-0.1c0.7,0,1.2-0.5,1.3-1.2
	c0.3-4.6,0.8-13.4-2.2-17.4c-3.8-4.9-11.1-5.3-16.7-4.3c-6,1-9.3,4.8-9.7,11.3c-0.3,4.9-0.4,11.1-0.1,18.9
	c0.4,11.5,7.6,14.7,17.9,13.2c7.5-1.1,11.1-5.4,10.9-12.8C834.9-118,834.4-118.7,833.6-118.8z M774.6-145.6c0-1.2-1-2.1-2.1-2.1
	c0,0,0,0,0,0l-5,0c-1.2,0-2.1,1-2.1,2.1l0,0l0.1,38.2c0,1.2,1,2.1,2.1,2.1l0,0l5,0c1.2,0,2.1-1,2.1-2.1v0L774.6-145.6z M791.4-139.5
	c0.4,0,0.6,0.3,0.6,0.6c0,0.1,0,0.2-0.1,0.3c-2.1,4.1-5.7,10.7-10.7,19.8c-2.1,3.8-3,7.8-2.8,11.9c0,0.8,0.7,1.4,1.5,1.4l21.8,0.1
	c1.5,0,2.7-1.2,2.7-2.7c0,0,0,0,0,0v-1.6c0-1.9-1.5-3.4-3.4-3.4h0l-9.8,0c-0.6,0-1.1-0.5-1.1-1.1c0-0.2,0.1-0.4,0.2-0.6
	c3.3-5.7,7.3-13.1,12.1-22.4c1.2-2.4,1.7-5.3,1.4-8.6c-0.1-0.9-0.8-1.5-1.7-1.5l-21.3-0.1c-1.3,0-2.4,1.1-2.5,2.4c0,0,0,0,0,0v2.8
	c0,1.5,1.2,2.7,2.6,2.7h0L791.4-139.5z"/>
<path class="st0" d="M826.6-172.9l0,16.6c0,0.4-0.4,0.8-0.8,0.8l0,0h-81.4c-0.8,0-1.5-0.7-1.5-1.5v0l0.1-103.4l-0.2-29.8
	c0-0.6,0.5-1,1-1h30.3c0.5,0,1,0.4,1,1l0,0v106.5c0,0.3,0.2,0.5,0.5,0.5l0,0h49.4c0.7,0,1.3,0.6,1.3,1.3L826.6-172.9z"/>
<path class="st1" d="M625.7-260.8c4,5.4,9.4,9.1,16.1,11.2c-10.7,30.8-11.8,61.3-3.2,91.6c9.1,32.1,27.3,58.8,54.7,80
	c4.5,3.5,10.7,6.3,14.7,9.3c0.5,0.4,1.2,0.3,1.5-0.2c0.1-0.2,0.2-0.4,0.2-0.7l-0.3-11.5c0-0.8,0.6-1.4,1.3-1.5l0.6-0.1
	c1.5,0.2,2.6,1.5,2.5,3L713.4-66c0,0.6,0.3,1.1,0.9,1.3l0.6,0.2c0.7,0.3,1.5-0.1,1.7-0.8c0.1-0.1,0.1-0.3,0.1-0.5v-3.6
	c0-1,0.8-1.8,1.8-1.8l0,0h2.1c0.6,0,1.1,0.5,1.1,1.1c0,0.1,0,0.2,0,0.3c-0.9,3.2-3.4,7.7,1.6,9c0.6,0.1,1.1-0.2,1.3-0.8
	c0-0.1,0-0.2,0-0.2v-8.3c0-0.8,0.6-1.5,1.4-1.5l0.7,0c0.8,0,1.5,0.7,1.6,1.5c0,0,0,0,0,0v10.6c0,1,0.8,1.8,1.9,1.8h0h0.5
	c0.8,0,1.4-0.6,1.4-1.4v0v-11.1c0-0.7,0.6-1.3,1.3-1.3h0.6c0.8,0,1.4,0.6,1.4,1.4v13c0,0.9,0.8,1.7,1.7,1.7l0,0h0.5
	c1.1,0,1.9-0.9,1.9-2c0,0,0,0,0,0v-12.9c0-0.7,0.6-1.2,1.2-1.2h0.9c0.7,0,1.3,0.6,1.3,1.3l0,0v15c0,1.3,1,2.3,2.3,2.3l0,0h0.5
	c0.7,0,1.3-0.6,1.3-1.3c0,0,0,0,0,0l-0.9-37.1c0-0.9,0.7-1.7,1.6-1.7c0.4,0,0.7,0.1,1,0.3c1,0.7,1.5,1.8,1.5,3.3
	c-0.2,13-0.4,25.6-0.5,37.6c0,0.3,0.2,0.5,0.5,0.5h3.5c0.2,0,0.3-0.1,0.3-0.3l0,0l-0.4-18.5c0-0.6,0.5-1.2,1.1-1.2c0,0,0,0,0,0h1.2
	c1,0,1.8,0.8,1.8,1.8v0v18.2c0,0.7,0.6,1.3,1.3,1.3l0,0h1.9c0.5,0,0.9-0.4,0.9-0.9c0,0,0-0.1,0-0.1c-0.5-3.5-0.7-5.8-0.6-6.9
	c0.5-7.3,0.5-11.3,0-12c-0.4-0.5-0.3-0.9,0.3-1.2c0.3-0.2,0.7-0.3,1.1-0.5c0.9-0.3,1.8,0.2,2.1,1.1c0.1,0.2,0.1,0.3,0.1,0.5v19.3
	c0,1,0.8,1.8,1.8,1.8l0,0h0.7c0.7,0,1.2-0.5,1.2-1.2l0,0v-20.2c0-0.6,0.5-1.1,1.1-1.1h0.9c0.6,0,1.2,0.5,1.2,1.2l0,0V-50
	c0,0.8,0.7,1.5,1.5,1.5l0,0h1.8c0.5,0,0.9-0.4,0.9-0.9c0,0,0,0,0,0l-0.5-21.3c0-0.5,0.4-0.9,0.9-0.9c0,0,0,0,0,0h2.1
	c0.6,0,1.1,0.5,1.1,1.1v20.6c0,0.5,0.3,1,0.7,1.3c0.9,0.7,2,0.6,3.3-0.2c1.3,9.9,4.5,17.5,15.4,19.4c-7.9,0.9-15.6,1.1-23.2,0.6
	c-28.6-1.7-54.9-9.9-79-24.7l-20.1-14.3c-17.7-15.3-31.5-31.9-41.4-49.7c-16.8-30.3-23.3-63.6-19.5-100c0.7-6.6,1.5-13.1,2.4-19.7
	L625.7-260.8z"/>
<path class="st1" d="M951.1-204.2c-0.9-3.5-2-7-3.4-10.3c-0.1-0.3-0.2-0.6-0.3-0.9c-1-1.2-2-2.5-3-3.6l-7.7-3.5
	c-0.2-0.1-0.5-0.1-0.7-0.1c-0.8,0.1-1.3,0.7-1.3,1.5l1.1,12.5c0.7,12.2,0.1,24.4-1.8,36.3l-3,13c6.5,4.8,9.5,12.2,13.6,18.8
	c-0.4-0.7,2.1-6.2,2.4-7.1c0.8-2.5,1.5-5,2.2-7.6c1.4-5.2,2.5-10.4,3.4-15.7C954.5-181.9,953.9-193.4,951.1-204.2z"/>
<path class="st1" d="M931.1-159.4c6.5,4.8,9.5,12.2,13.6,18.8c-1.8,5.4-4,10.7-6.6,15.9c-18,36-45,62.8-81.2,80.3
	c-18.7,8.5-38.2,13.5-58.3,15.1c-10.9-1.9-14.1-9.5-15.4-19.4c-0.1-5.5-0.1-11,0.1-16.5c0.2-4.8-0.5-11.1-0.8-14.6
	c-0.2-1.6,0.4-2.5,1.7-2.8c0.9-0.2,1.8,0.4,2,1.3c0,0.1,0,0.2,0,0.3v31.7c0,0.6,0.5,1.1,1.1,1.1c0,0,0,0,0,0l1.9,0
	c0.6,0,1-0.5,1-1.1l-0.1-9.1l0.3-7.8c0-0.4,0.2-0.9,0.6-1.1l0.6-0.5c0.3-0.2,0.7-0.2,0.9,0.1c0.1,0.1,0.1,0.2,0.2,0.3l0.3,1.9v16.1
	c0,0.6,0.5,1.2,1.2,1.2l0,0h2.6c0.5,0,0.8-0.4,0.8-0.8v-21.4c0-0.5,0.4-1,1-1l1.4,0c0.4,0,0.8,0.3,0.8,0.8c0,0,0,0,0,0v20.6
	c0,0.8,0.6,1.4,1.4,1.4c0,0,0,0,0,0l0.9,0c1,0,1.7-0.8,1.7-1.8v-19.8c0-0.6,0.5-1.1,1.1-1.1h0.8c0.5,0,1,0.4,1,1l0,0v19.3
	c0,0.6,0.5,1.1,1.1,1.1c0,0,0,0,0,0l1.9-0.1c0.8,0,1.5-0.7,1.4-1.5c0,0,0,0,0,0l-0.4-18.8c0-0.4,0.3-0.7,0.7-0.8c0,0,0,0,0,0
	l2.3-0.1c0.3,0,0.6,0.2,0.6,0.6v18.5c0,0.4,0.3,0.7,0.7,0.7l0,0h2.6c0.8,0,1.4-0.6,1.4-1.4c0,0,0,0,0,0l-0.9-38.2
	c0-0.8,0.6-1.5,1.4-1.5c0,0,0,0,0,0l0.5,0c0.9,0,1.6,0.7,1.6,1.6c0,0,0,0,0,0v36.7c0,0.8,0.7,1.5,1.5,1.5c0.1,0,0.2,0,0.3,0l0.7-0.2
	c0.9-0.2,1.5-1,1.5-1.8v-15.5c0-0.6,0.5-1.1,1.1-1.1h1.4c0.5,0,0.9,0.4,0.9,0.9c0,0.1,0,0.2,0,0.3c-1,3.4-1.1,8-0.4,13.8
	c0.1,0.6,0.6,1,1.2,1l2.9-0.1c0.7,0,1.2-0.6,1.2-1.2c0-0.1,0-0.3-0.1-0.4c-1.2-3-1.4-7.5-0.6-13.5c0.1-0.4,0.4-0.7,0.8-0.7h2.1
	c0.5,0,0.8,0.4,0.8,0.8c0,0.1,0,0.2,0,0.3c-1.1,3.3-1.1,7-0.1,11.1c0.2,0.8,0.9,1.3,1.7,1.3l0.7,0c0.8,0,1.4-0.7,1.4-1.5
	c0,0,0,0,0,0l-0.3-10.8c0-0.8,0.6-1.5,1.4-1.5c0,0,0,0,0,0h0.5c0.7,0,1.3,0.5,1.3,1.2c0,0,0,0,0,0l0.2,8.2c0,0.9,0.8,1.6,1.7,1.6
	c0.4,0,0.7-0.1,1-0.4l0.7-0.6c0.5-0.4,0.8-1,0.7-1.6l-0.2-6.9c0-0.6,0.5-1.1,1.1-1.1c0,0,0,0,0,0h0.5c1,0,1.9,0.8,1.9,1.8l0.1,4.3
	c0,0.4,0.4,0.8,0.8,0.8c0.1,0,0.2,0,0.3-0.1c2.8-1.1,4-2.7,3.3-4.6c-1.2-3.7-0.8-8.4-0.7-12c0-0.9,0.7-1.6,1.6-1.7l0.5,0
	c0.6,0,1.2,0.5,1.2,1.2c0,0,0,0,0,0v12.2c0,0.5,0.5,1,1,1c0.2,0,0.3,0,0.5-0.1c12.7-7,23.9-15.7,33.8-26.1
	C912-112.9,924.2-134.6,931.1-159.4z"/>
<path class="st1" d="M735.8-119c2-0.5,4.1-0.5,6.3,0.1c0.5,0.1,0.9,0.5,1.1,1l2,4.8c0.2,0.5,0.6,0.9,1.2,1.1
	c1.3,0.5,2.8,0.4,4.5-0.1c0.6-0.2,1-0.6,1.2-1.2c0.8-2.7,0.4-4.8-1.3-6c-2.3-1.8-5.6-3.9-9.8-6.5c-8.7-5.3-9-19,2.1-21.7
	c9.5-2.3,18.5,0.8,18.9,11.9c0,1-0.7,1.8-1.6,1.9c-2.9,0.3-5,0.2-6.4-0.3c-0.5-0.2-0.9-0.5-1.2-1c-1.6-2.6-1.4-6.5-6.1-5.1
	c-1.6,0.5-2.6,2-2.2,3.4c0,0.1,0,0.1,0.1,0.2c0.6,1.5,1.5,2.7,2.8,3.5c6.2,3.8,14,7.9,14.9,15.3c1.4,11.5-7.5,14.5-16.9,13.4
	c-5.8-0.6-9.5-4.1-10.9-10.4C733.8-116.8,734.5-118.7,735.8-119C735.8-119,735.8-119,735.8-119z"/>
<path class="st1" d="M833.6-118.8c0.8,0.1,1.3,0.8,1.3,1.6c0.2,7.5-3.4,11.7-10.9,12.8c-10.3,1.5-17.5-1.7-17.9-13.2
	c-0.3-7.7-0.2-14,0.1-18.9c0.5-6.5,3.7-10.3,9.7-11.3c5.6-1,13-0.6,16.7,4.3c3,3.9,2.5,12.8,2.2,17.4c0,0.7-0.6,1.2-1.3,1.2l-17,0.1
	c-0.7,0-1.3,0.6-1.3,1.3c0,1.6,0.2,4.3,0.5,8.3c0.2,2.7,2.1,3.9,5.8,3.6c1.5-0.1,2.7-1.2,3-2.6l0.8-3c0.1-0.5,0.6-0.9,1.1-1
	C829.3-119,831.6-119.1,833.6-118.8z M817.6-132.1l6.1-0.2c1,0,1.7-0.9,1.7-1.8c0,0,0,0,0,0l-0.1-2.2c-0.1-2.1-1.8-3.7-3.8-3.7
	c0,0,0,0,0,0l-2.2,0.1c-2,0.1-3.6,1.8-3.5,3.9l0.1,2.2C815.8-132.9,816.7-132.1,817.6-132.1C817.6-132.1,817.6-132.1,817.6-132.1z"
	/>
<path class="st1" d="M767.5-147.7l5,0c1.2,0,2.1,1,2.1,2.1l0.1,38.2c0,1.2-1,2.1-2.1,2.1l-5,0c-1.2,0-2.1-1-2.1-2.1l-0.1-38.2
	C765.4-146.8,766.3-147.7,767.5-147.7z"/>
<path class="st1" d="M791.4-139.5l-10.5,0c-1.5,0-2.6-1.2-2.6-2.7c0,0,0,0,0,0v-2.8c0-1.4,1.1-2.5,2.4-2.5c0,0,0,0,0,0l21.3,0.1
	c0.9,0,1.6,0.7,1.7,1.5c0.3,3.4-0.2,6.2-1.4,8.6c-4.8,9.2-8.8,16.7-12.1,22.4c-0.3,0.5-0.1,1.2,0.4,1.6c0.2,0.1,0.4,0.2,0.6,0.2
	l9.8,0c1.9,0,3.4,1.5,3.4,3.4c0,0,0,0,0,0v1.6c0,1.5-1.2,2.7-2.7,2.7c0,0,0,0,0,0l-21.8-0.1c-0.8,0-1.4-0.6-1.5-1.4
	c-0.3-4.1,0.7-8.1,2.8-11.9c5-9.1,8.6-15.7,10.7-19.8c0.2-0.3,0-0.7-0.3-0.9C791.6-139.4,791.5-139.5,791.4-139.5z"/>
<path class="st2" d="M817.6-132.1c-1,0-1.8-0.7-1.8-1.7c0,0,0,0,0,0l-0.1-2.2c-0.1-2.1,1.5-3.9,3.5-3.9l2.2-0.1
	c2-0.1,3.8,1.6,3.8,3.7c0,0,0,0,0,0l0.1,2.2c0,1-0.7,1.8-1.7,1.8c0,0,0,0,0,0L817.6-132.1z"/>
<path class="st1" d="M793.2-65.5l-0.3-1.9c0-0.4-0.4-0.6-0.7-0.6c-0.1,0-0.2,0.1-0.3,0.2l-0.6,0.5c-0.3,0.3-0.5,0.7-0.6,1.1
	l-0.3,7.8l-0.1-12.1c0-0.6,0.5-1.1,1.1-1.2c0.9,0,1.7,0.2,2.4,0.7c0.5,0.3,0.7,0.9,0.6,1.5L793.2-65.5z"/>
<path class="st1" d="M696.4-53.3c-7.8-2.9-14.5-7.7-20.1-14.3L696.4-53.3z"/>
<g>
	<path class="st1" d="M761.9-223.7c-0.3-0.5-0.3-1,0-1.5l31.7-63.5c0-0.1,0.1-0.2,0.1-0.3c0-0.3-0.3-0.6-0.6-0.6h-31.4
		c-0.2,0-0.4,0.1-0.5,0.3l-14.2,34.7c0,0.1-0.1,0.2-0.2,0.2c-0.2,0.1-0.4,0-0.5-0.2L732-289.2c-0.1-0.2-0.3-0.4-0.5-0.4l-29.9,0
		l-1.8,0.1c-0.1,0-0.1,0-0.2,0c-0.2,0.1-0.3,0.3-0.2,0.5l32,64c0.2,0.3,0.1,0.6,0,0.9l-8.7,16.6L698-160.4c0,0.1-0.1,0.2-0.1,0.3
		c0,0.4,0.3,0.7,0.7,0.7h32.5c0.5,0,0.9-0.3,1.1-0.7l11.4-28.7l2.7-6.7c0-0.1,0.1-0.2,0.2-0.2c0.2-0.1,0.4,0,0.4,0.2l14,35.4
		c0.2,0.4,0.6,0.7,1,0.7l31.2,0c0.8,0.1,1.4,0.1,1.9-0.2c0.2-0.1,0.3-0.4,0.2-0.6L761.9-223.7z"/>
	<path class="st1" d="M866.8-185.7h-34.3c-0.4,0-0.7-0.3-0.7-0.7l0-36.4V-258l0-19.8c-0.5-1.1-1-1.8-1.3-2.1
		c-2.4-2.6-4.5-5.4-6.4-8.4c-0.3-0.5-1-0.9-1.9-1.3l-21.1,0l0,36.3l0,93.4c0,0.3,0.2,0.5,0.5,0.5h65c0.4,0,0.7-0.3,0.7-0.7v-25.2
		C867.2-185.5,867-185.7,866.8-185.7z M831.3-220.2C831.4-220.2,831.4-220.2,831.3-220.2C831.4-220.2,831.4-220.2,831.3-220.2z
		 M831.5-220.3C831.5-220.3,831.5-220.3,831.5-220.3c0,0,0-0.1,0-0.1C831.6-220.4,831.5-220.3,831.5-220.3z"/>
</g>
<linearGradient id="SVGID_00000090274076441461520050000015181866568809687220_" gradientUnits="userSpaceOnUse" x1="919.3088" y1="-322.0014" x2="840.1776" y2="-263.9718">
	<stop  offset="0" style="stop-color:#000000"/>
	<stop  offset="0" style="stop-color:#7E7E7E"/>
	<stop  offset="0.1959" style="stop-color:#000000"/>
	<stop  offset="0.3567" style="stop-color:#3A3A3A"/>
	<stop  offset="0.5" style="stop-color:#3F3F3F"/>
	<stop  offset="0.6433" style="stop-color:#797979"/>
	<stop  offset="0.8041" style="stop-color:#727272"/>
	<stop  offset="1" style="stop-color:#101010"/>
</linearGradient>
<path style="fill:url(#SVGID_00000090274076441461520050000015181866568809687220_);" d="M946.8-216.2
	c-40.7-116.8-142-148.4-142-148.4C811.3-219.7,952-209.4,946.8-216.2z"/>
</svg>
